<?xml version="1.0" encoding="utf-8"?>
<!-- Generator: Adobe Illustrator 16.0.3, SVG Export Plug-In . SVG Version: 6.00 Build 0)  -->
<!DOCTYPE svg PUBLIC "-//W3C//DTD SVG 1.1//EN" "http://www.w3.org/Graphics/SVG/1.1/DTD/svg11.dtd">
<svg version="1.1" id="레이어_1" xmlns="http://www.w3.org/2000/svg" xmlns:xlink="http://www.w3.org/1999/xlink" x="0px"
	 y="0px" width="900px" height="900px" viewBox="0 0 900 900" enable-background="new 0 0 900 900" xml:space="preserve">
<g>
	<path fill="#FFFFFF" d="M163.154,192.849h-97.25v232.633v97.25l0.021,232.633l-0.021,97.229l0,0h97.25l0,0h291.73l0,0h97.23
		l0.01-0.02v-97.21V522.731v-97.25H163.154V192.849z M454.885,522.731v232.612h-291.73l-0.01-232.612H454.885z"/>
	<polygon fill="#FFFFFF" points="211.77,192.849 211.77,290.099 600.75,290.099 600.75,852.594 697.99,852.614 697.99,290.099 
		698,192.849 600.75,192.849 	"/>
	<polygon fill="#FFFFFF" points="746.615,46.983 738.225,46.983 65.904,46.983 65.904,144.254 738.225,144.254 738.225,852.594 
		835.475,852.594 835.475,46.983 	"/>
</g>
</svg>
