<?xml version="1.0" encoding="utf-8"?>
<!-- Generator: Adobe Illustrator 16.0.3, SVG Export Plug-In . SVG Version: 6.00 Build 0)  -->
<!DOCTYPE svg PUBLIC "-//W3C//DTD SVG 1.1//EN" "http://www.w3.org/Graphics/SVG/1.1/DTD/svg11.dtd">
<svg version="1.1" id="레이어_1" xmlns="http://www.w3.org/2000/svg" xmlns:xlink="http://www.w3.org/1999/xlink" x="0px"
	 y="0px" width="900px" height="900px" viewBox="0 0 900 900" enable-background="new 0 0 900 900" xml:space="preserve">
<g>
	<g>
		<polygon fill="none" points="902.324,409.351 902.324,549.104 902.408,409.351 		"/>
		<polygon fill="#FFFFFF" points="902.324,549.104 902.324,409.351 902.324,-0.6 452.071,-0.6 352.64,-0.6 352.64,-0.609 
			352.621,-0.6 352.621,-0.59 -0.906,352.933 -1.289,903.019 548.801,902.626 902.334,549.104 		"/>
		<g>
			<path fill="#1A1A1A" d="M492.71,155.726h-45.239v108.222v45.244l0.019,108.18l-0.019,45.258l0,0h45.239l0,0h135.717l0,0h45.22
				l0,0v-45.258V309.177v-45.238l-180.937,0.009V155.726z M628.427,309.191v108.18H492.71V309.177L628.427,309.191z"/>
			<polygon fill="#1A1A1A" points="515.339,155.726 515.339,200.974 696.267,200.974 696.267,462.629 741.496,462.629 
				741.496,200.96 741.506,155.726 696.267,155.726 			"/>
			<polygon fill="#1A1A1A" points="764.125,87.872 760.234,87.872 447.471,87.872 447.471,133.125 760.234,133.125 760.234,462.629 
				805.464,462.629 805.464,87.872 			"/>
		</g>
	</g>
	<g>
		<rect x="297.775" y="859.553" fill="#1A1A1A" width="195.019" height="13.895"/>
		<path fill="#1A1A1A" d="M537.557,866.495c0,7.456-6.037,13.512-13.502,13.512s-13.512-6.056-13.512-13.512
			c0-7.475,6.047-13.503,13.512-13.503S537.557,859.021,537.557,866.495z"/>
		<g>
			<path fill="#1A1A1A" d="M37.129,721.614H78.22v12.803H52.604v14.081h21.971v12.878H52.604v24.588H37.129V721.614z"/>
			<path fill="#1A1A1A" d="M85.363,753.426c0-21.108,11.935-33.024,29.497-33.024s29.483,12.01,29.483,33.024
				c0,21.099-11.921,33.742-29.483,33.742S85.363,774.524,85.363,753.426z M128.619,753.426c0-12.448-5.282-19.811-13.759-19.811
				c-8.478,0-13.666,7.362-13.666,19.811c0,12.541,5.188,20.427,13.666,20.427C123.337,773.853,128.619,765.967,128.619,753.426z"/>
			<path fill="#1A1A1A" d="M191.019,785.964l-11.842-22.675h-7.441v22.675h-15.472v-64.35h23.599
				c13.759,0,25.171,4.647,25.171,20.222c0,9.434-4.414,15.49-11.071,18.606l14.361,25.521H191.019z M171.735,751.102h6.919
				c7.349,0,11.24-3.2,11.24-9.266c0-6.047-3.891-8.054-11.24-8.054h-6.919V751.102z"/>
			<path fill="#1A1A1A" d="M48.289,849.661l-19.372-41.609h16.428l5.366,14.259c1.726,4.853,3.369,9.35,5.188,14.38h0.35
				c1.81-5.03,3.546-9.527,5.352-14.38l5.37-14.259h16.171l-19.465,41.609v22.74H48.289V849.661z"/>
			<path fill="#1A1A1A" d="M84.854,839.863c0-21.099,11.93-33.015,29.487-33.015s29.497,12.009,29.497,33.015
				c0,21.117-11.94,33.752-29.497,33.752S84.854,860.98,84.854,839.863z M128.087,839.863c0-12.439-5.268-19.792-13.745-19.792
				s-13.666,7.353-13.666,19.792c0,12.551,5.188,20.436,13.666,20.436S128.087,852.414,128.087,839.863z"/>
			<path fill="#1A1A1A" d="M155.391,842.14v-34.088h15.392v35.73c0,12.168,3.64,16.517,10.736,16.517
				c6.99,0,10.89-4.349,10.89-16.517v-35.73h14.87v34.088c0,21.696-8.636,31.476-25.76,31.476
				C164.293,873.615,155.391,863.836,155.391,842.14z"/>
			<path fill="#1A1A1A" d="M256.456,872.401l-11.842-22.666h-7.442v22.666H221.7v-64.35h23.6c13.764,0,25.172,4.666,25.172,20.24
				c0,9.425-4.418,15.49-11.067,18.598l14.361,25.512H256.456z M237.172,837.558h6.924c7.344,0,11.24-3.21,11.24-9.266
				c0-6.057-3.896-8.053-11.24-8.053h-6.924V837.558z"/>
		</g>
	</g>
</g>
</svg>
