<?xml version="1.0" encoding="utf-8"?>
<!-- Generator: Adobe Illustrator 16.0.3, SVG Export Plug-In . SVG Version: 6.00 Build 0)  -->
<!DOCTYPE svg PUBLIC "-//W3C//DTD SVG 1.1//EN" "http://www.w3.org/Graphics/SVG/1.1/DTD/svg11.dtd">
<svg version="1.1" id="레이어_1" xmlns="http://www.w3.org/2000/svg" xmlns:xlink="http://www.w3.org/1999/xlink" x="0px"
	 y="0px" width="175.352px" height="175.338px" viewBox="0 0 175.352 175.338" enable-background="new 0 0 175.352 175.338"
	 xml:space="preserve">
<path fill="#FFFFFF" d="M14.564,89.664c-0.144,0.419-0.272,0.823-0.421,1.25c-0.001,0-1.019,3.604-1.934,7.959
	c-0.612,2.789-1.109,5.931-1.37,8.321c0.055-0.321,0.104-0.588,0.143-0.771C11.795,99.875,13.101,94.69,14.564,89.664z"/>
<path fill="#FFFFFF" d="M10.046,115.856c-0.005-0.092-0.011-0.188-0.015-0.279c0.009-1.032,0.127-3.039,0.338-4.893
	c0.147-1.354,0.328-2.633,0.472-3.49c0.261-2.391,0.758-5.532,1.37-8.321c0.915-4.354,1.933-7.959,1.934-7.959
	c0.147-0.427,0.277-0.831,0.421-1.25c0.719-2.468,1.474-4.898,2.229-7.433c0.126-0.446,0.238-0.89,0.355-1.333
	c0.187-0.757,0.373-1.514,0.541-2.256c0.374-1.634,0.683-3.214,0.979-4.754c0.022-0.128,0.049-0.257,0.07-0.385
	c0.251-1.255,0.479-2.507,0.699-3.757c-1.377,1.659-2.773,3.506-4.173,5.591c-0.551,0.814-1.099,1.674-1.643,2.559
	c-0.248,0.469-0.479,0.883-0.687,1.229c0,0-0.08,0.098-0.197,0.243c-0.563,0.965-1.122,1.958-1.672,3.004
	c-1.354,2.593-2.565,5.438-3.736,8.582c-0.869,2.262-1.562,4.544-2.329,6.768c-0.757,2.225-1.504,4.405-2.157,6.521
	c-0.63,1.938-1.28,3.799-1.966,5.583l9.256,9.256c-0.109-1.883-0.105-2.991-0.106-2.991
	C10.029,116.09,10.035,116.001,10.046,115.856z"/>
<path fill="#FFFFFF" d="M10.046,115.856c-0.011,0.145-0.017,0.232-0.017,0.232c0.001,0-0.003,1.107,0.107,2.991l0.105,0.106
	C10.159,118.046,10.093,116.931,10.046,115.856z"/>
<path fill="#FFFFFF" d="M17.69,78.643c-0.168,0.742-0.354,1.499-0.541,2.256c0.621-2.363,1.118-4.694,1.521-7.01
	C18.373,75.429,18.064,77.009,17.69,78.643z"/>
<path fill="#F7DDEB" d="M19.53,69.638c-0.03,0.036-0.061,0.073-0.091,0.109c-0.22,1.25-0.448,2.502-0.699,3.757
	c-0.021,0.128-0.048,0.257-0.07,0.385c0.071-0.368,0.146-0.749,0.218-1.111C19.123,71.693,19.333,70.652,19.53,69.638z"/>
<path fill="#F7DDEB" d="M10.292,113.12c0.067-0.741,0.17-1.443,0.237-1.98c0.069-0.533,0.116-0.891,0.116-0.891
	c-0.02-0.676,0.054-1.756,0.194-3.055c-0.144,0.857-0.323,2.138-0.472,3.49c-0.211,1.854-0.329,3.859-0.338,4.893
	c0.004,0.091,0.01,0.188,0.015,0.279c0.012-0.166,0.028-0.41,0.05-0.713C10.148,114.592,10.221,113.854,10.292,113.12z"/>
<path fill="#F7DDEB" d="M15.669,86.308c0.145-0.451,0.282-0.892,0.438-1.449c0.381-1.335,0.72-2.653,1.042-3.96
	c-0.117,0.443-0.229,0.887-0.355,1.333c-0.756,2.534-1.511,4.965-2.229,7.433c0.215-0.633,0.438-1.273,0.636-1.889
	C15.356,87.285,15.513,86.795,15.669,86.308z"/>
<path fill="#C7E8FA" d="M5.004,97.722c0.769-2.224,1.46-4.506,2.329-6.768c1.171-3.144,2.382-5.989,3.736-8.582
	c0.55-1.046,1.109-2.039,1.672-3.004c-0.186,0.232-0.491,0.622-0.913,1.193c-0.611,0.844-1.485,2.054-2.387,3.535
	c-0.248,0.762-0.476,1.474-0.669,2.115c-0.9,2.849-1.415,4.478-1.415,4.478c-0.879,2.262-1.569,4.545-2.338,6.77
	c-0.748,2.227-1.515,4.404-2.167,6.521c-0.651,2.008-1.325,3.938-2.037,5.781l0.064,0.064c0.686-1.784,1.336-3.646,1.966-5.583
	C3.5,102.127,4.247,99.946,5.004,97.722z"/>
<path fill="#C7E8FA" d="M20.661,61.841c-0.047,0.113-0.093,0.226-0.141,0.339c-1.396,3.358-2.849,6.874-4.167,9.911
	c-0.999,2.303-1.952,4.334-2.729,5.806c0.544-0.885,1.092-1.744,1.643-2.559c1.398-2.085,2.796-3.932,4.173-5.591
	c0.285-1.617,0.552-3.233,0.788-4.851L20.661,61.841z"/>
<path fill="#C7E8FA" d="M19.939,67.467c0.441-2.394,0.73-4.52,0.979-6.251c-0.086,0.208-0.172,0.416-0.259,0.625l-0.434,3.056
	c-0.236,1.617-0.503,3.233-0.788,4.851c0.029-0.036,0.061-0.073,0.091-0.109C19.675,68.896,19.814,68.164,19.939,67.467z"/>
<path fill="#7ECEF4" d="M12.938,79.125c0.208-0.346,0.438-0.76,0.687-1.229c-0.296,0.479-0.59,0.971-0.884,1.472
	C12.858,79.223,12.938,79.125,12.938,79.125z"/>
<path fill="#C7E8FA" d="M5.977,90.623c-1.069,2.315-1.938,4.935-2.655,7.707c0,0-0.213,0.502-0.572,1.351
	c-0.181,0.422-0.398,0.932-0.646,1.508c-0.229,0.58-0.484,1.229-0.759,1.922c-0.414,1.029-0.871,2.162-1.346,3.334v2.5l0.815,0.816
	c0.712-1.844,1.386-3.773,2.037-5.781c0.652-2.115,1.419-4.295,2.167-6.521c0.769-2.225,1.459-4.508,2.338-6.77
	c0,0,0.515-1.629,1.415-4.478c0.193-0.642,0.421-1.354,0.669-2.115c-0.094,0.153-0.187,0.295-0.279,0.454
	C8.146,86.252,7.032,88.304,5.977,90.623z"/>
<path opacity="0.9" fill="#4AC1F1" enable-background="new    " d="M5.977,90.623c-1.069,2.315-1.938,4.935-2.655,7.707
	c0,0-0.213,0.502-0.572,1.351c-0.181,0.422-0.398,0.932-0.646,1.508c-0.229,0.58-0.484,1.229-0.759,1.922
	c-0.414,1.029-0.871,2.162-1.346,3.334v2.5l0.815,0.816c0.712-1.844,1.386-3.773,2.037-5.781c0.652-2.115,1.419-4.295,2.167-6.521
	c0.769-2.225,1.459-4.508,2.338-6.77c0,0,0.515-1.629,1.415-4.478c0.193-0.642,0.421-1.354,0.669-2.115
	c-0.094,0.153-0.187,0.295-0.279,0.454C8.146,86.252,7.032,88.304,5.977,90.623z"/>
<g>
	<polygon fill="none" points="63.317,78.833 63.317,80.594 63.317,80.677 63.319,104.905 63.317,74.505 	"/>
	<polygon fill="none" points="145.923,31.395 145.923,37.848 151.18,43.104 151.18,25.044 133.119,25.044 139.47,31.395 	"/>
	<path fill="#FFFFFF" d="M79.882,94.317c-0.258-3.801-0.192-7.669,0.557-10.71c0.182-0.755,0.468-1.94,0.805-3.338
		c0.336-1.504,0.718-3.307,1.116-4.955c0.063-0.274,0.126-0.54,0.188-0.81h-6.521V98.5c0.231-0.312,0.463-0.622,0.709-0.938
		C77.763,96.351,78.818,95.308,79.882,94.317z"/>
	<path fill="#FFFFFF" d="M111.148,75.06c0.988,0.049,1.999,0.155,3.003,0.294v-0.849h-3.292c-0.023,0.19-0.049,0.384-0.071,0.573
		C110.909,75.074,111.027,75.063,111.148,75.06z"/>
	<polygon fill="#FFFFFF" points="139.47,31.395 145.923,37.848 145.923,31.395 	"/>
	<polygon fill="#FFFFFF" points="151.18,25.044 151.18,43.104 163.889,55.813 163.889,12.332 152.276,12.332 151.18,12.332 
		120.407,12.332 133.119,25.044 	"/>
	<path fill="#1A1A1A" d="M151.18,43.465c0.076-0.022,0.159-0.048,0.239-0.071c-0.08,0.035-0.162,0.07-0.239,0.105v6.927v4.255v0.025
		v33.527V106.3v4.082v7.23h12.709V55.96v-0.146l-12.709-12.71V43.465z"/>
	<path fill="#FFFFFF" d="M62.018,7.574c-0.184,0.871-0.639,1.999-1.038,3.158c-3.745,8.333-7.021,15.435-10.459,23.272
		c-1.583,4.251-2.938,7.895-3.982,11.638c-1.095,3.726-2.31,7.414-3.485,11.798c-0.625,2.068-1.164,4.055-1.669,5.993
		c-0.525,1.933-0.842,3.861-1.27,5.756c-0.405,1.9-0.825,3.791-1.31,5.713c-0.521,1.914-0.907,3.911-1.514,5.958
		c-0.694,2.754-1.279,5.241-1.784,7.73c-0.503,2.519-0.918,4.886-1.236,7.384c-0.316,2.489-0.54,5.078-0.624,7.92
		c-0.084,2.836-0.023,5.934,0.337,9.346c0.194,1.783,0.486,4.396,1.152,7.179c0.639,2.783,1.745,5.702,3.267,7.81
		c1.521,2.135,3.354,3.295,5.158,3.867c1.844,0.543,3.645,0.559,5.088,0.428c1.396-0.289,3.008-0.289,4.778-0.49
		c1.454-0.143,2.964-0.383,4.321-0.83c1.601-3.279,3.862-7.629,7.386-13.385c0.037-0.068,0.073-0.135,0.11-0.203h-1.928
		l0.002-12.707l-0.002-24.229c-0.256,0.146-0.52,0.298-0.771,0.444c-2.354,1.369-4.506,2.623-6.627,3.627
		c-2.243,1.038-4.396,2.302-6.195,3.816c-1.837,1.479-3.219,3.092-4.581,4.268c-0.164,0.076-0.273,0.036-0.4-0.214
		c-0.09-0.177-0.167-0.453-0.238-0.767c-0.024-0.109-0.053-0.209-0.074-0.332c-0.001-0.008-0.001-0.018-0.003-0.023
		c-0.015-0.068-0.029-0.129-0.044-0.203c-0.034-0.469-0.071-1.023-0.026-1.58c0.075-0.548,0.122-1.117,0.286-1.593
		c0.494-1.764,1.276-3.304,2.379-4.81c1.066-1.446,2.252-2.626,3.466-3.669c2.443-2.059,5.004-3.574,7.556-5.167
		c0.753-0.649,2.362-1.646,2.82-2.208c0.453-0.58,1.229-1.175,2.007-1.758c0.151-0.095,0.299-0.178,0.449-0.271v-8.442V31.395
		h12.709v30.401h3.793c0.138-0.063,0.269-0.126,0.407-0.188c1.557-0.805,2.992-1.563,4.372-2.292
		c0.27-5.018,0.323-9.986,0.08-15.168c-0.001-0.015-0.002-0.029-0.002-0.044H82.38V31.395h0.894
		c-0.402-2.188-0.876-4.306-1.424-6.346c0-0.002-0.001-0.003-0.002-0.005h-18.53V12.332H77.06h0.096
		c-0.433-0.895-0.875-1.77-1.331-2.605c-1.844-3.417-3.054-5.926-4.346-8.199c-0.129-0.226-0.263-0.445-0.396-0.664
		C70.902,0.567,70.718,0.279,70.528,0h-4.647c-0.709,1.146-1.414,2.307-2.102,3.514C63.316,4.639,62.195,6.697,62.018,7.574z"/>
	<path fill="#FFFFFF" d="M7.35,63.048c3.718-10.177,6.038-17.39,8.896-27.484c1.364-4.803,2.162-9.357,3.19-13.938
		c0.512-2.295,0.998-4.574,1.746-6.924c0.352-1.17,0.72-2.349,1.11-3.54c0.21-0.641,0.367-1.089,0.553-1.596
		c0.186-0.494,0.34-1.063,0.524-1.602C24.11,5.289,24.614,2.622,25.086,0h-25.25v82.854c0.672-1.992,1.347-3.954,2.072-5.84
		C3.667,72.358,5.447,67.793,7.35,63.048z"/>
	<path fill="#FFFFFF" d="M43.733,8.375c-0.313,1.323-0.626,2.652-0.934,3.952l-0.418,1.652l-0.521,1.835l-0.366,1.289l-0.273,1.027
		c-0.002,0.009-0.006,0.018-0.008,0.026c-0.354,1.366-0.688,2.703-0.988,4.08c-0.271,1.492-0.519,2.98-0.753,4.468
		c-0.026,0.163-0.054,0.337-0.079,0.505c1.078-1.185,2.183-2.461,3.327-3.842c0.543-0.675,1.082-1.387,1.617-2.119
		c0.246-0.396,0.477-0.745,0.684-1.034c0,0,0.079-0.079,0.193-0.197c0.557-0.802,1.106-1.629,1.647-2.501
		c0.663-1.089,1.35-2.214,2.06-3.38c0.692-1.178,1.37-2.415,2.029-3.719c0.972-1.875,1.868-3.761,2.835-5.575
		C54.707,3.181,55.617,1.563,56.53,0H45.892c-0.541,1.876-1.082,3.997-1.71,6.476C44.03,7.118,43.884,7.738,43.733,8.375z"/>
	<path fill="#FFFFFF" d="M114.604,45.969c2.014-0.612,3.846-1.22,5.606-1.865h-5.666c0.015,0.534,0.031,1.06,0.059,1.557
		C114.606,45.763,114.603,45.866,114.604,45.969z"/>
	<path fill="#FFFFFF" d="M101.78,3.457c0.738,1.206,1.434,2.19,1.974,2.981c1.119,1.591,1.912,2.463,2.011,2.983
		c0.099,1.143,0.327,1.918,0.694,2.91h13.948L108.075,0h-8.26c0.278,0.515,0.557,1.012,0.829,1.474
		C101.032,2.195,101.411,2.854,101.78,3.457z"/>
	<path fill="#FFFFFF" d="M110.805,27.23c-0.058-0.789-0.109-1.514-0.158-2.187h-0.358c0.195,0.9,0.375,1.812,0.544,2.729
		C110.823,27.594,110.813,27.406,110.805,27.23z"/>
	<path fill="#FFFFFF" d="M133.214,31.395h6.257l-6.352-6.351h-21.752c0.629,2.073,1.238,4.188,1.784,6.351H133.214z"/>
	<path fill="#FFFFFF" d="M172.176,125.399c-0.33,0.801-0.693,1.682-1.076,2.604c-0.382,0.921-0.782,1.884-1.283,2.858
		c-0.952,1.945-1.938,3.898-2.82,5.559c-0.873,1.667-1.666,3.029-2.264,3.786c-1.633,2.265-3.228,4.42-4.824,6.542
		c-0.012,0.218-0.021,0.438-0.032,0.666h-0.473c-1.798,2.225-3.613,4.413-5.493,6.641c-0.328,0.494-0.652,1.23-0.684,1.701
		c-0.083,0.701-0.252,1.402-0.453,2.104v8.756h-2.913l-0.254-0.495c-0.024,0.082-0.059,0.167-0.081,0.249
		c-0.443,1.412-0.583,2.824-1.333,4.248c-0.86,1.636-1.77,3.199-2.706,4.72h29.701v-59.249c-0.371,1.666-0.885,3.572-1.6,5.745
		C173.34,122.505,172.831,123.796,172.176,125.399z M160.451,162.405v4.211h-2.85v-4.211l-3.586-7.698h3.042l0.991,2.642
		c0.32,0.896,0.624,1.729,0.96,2.657h0.064c0.336-0.929,0.656-1.761,0.992-2.657l0.992-2.642h2.992L160.451,162.405z"/>
	<path fill="#FFFFFF" d="M137.571,160.662c-0.32-1.185-0.624-2.608-0.944-3.826h-0.063c-0.288,1.249-0.608,2.642-0.913,3.826
		l-0.256,1.008h2.433L137.571,160.662z"/>
	<path fill="#FFFFFF" d="M139.779,145.513c0.752,0,1.377-0.562,1.377-1.906c0-1.313-0.641-1.744-1.425-1.744
		c-0.593,0-1.2,0.287-1.682,1.072C138.291,144.919,139.027,145.513,139.779,145.513z"/>
	<path fill="#FFFFFF" d="M126.707,156.964h-1.168v3.441h1.248c1.394,0,2.064-0.656,2.064-1.824
		C128.852,157.381,128.084,156.964,126.707,156.964z"/>
	<path fill="#FFFFFF" d="M136.836,163.879h-1.984l-0.688,2.737h-2.913l3.697-11.909h3.426l1.47,4.735
		c0.678-0.59,1.287-1.127,1.701-2.105c0.249-0.352-0.178-0.01,0.199-2.004c0.375-1.988,1.627-6.309,4.502-16.072
		c0.089-0.469,0.167-0.926,0.245-1.385h-1.271v-2.369h1.646c0.189-1.357,0.341-2.699,0.455-4.063
		c0.217-2.603,0.538-5.229,1.235-8.196c0.63-2.538,1.774-4.476,2.206-6.808c0.188-2.121,0.344-4.117,0.42-6.059V106.3
		c-0.128-2.729-0.381-5.354-0.785-7.959c-0.162-1.783-0.221-3.973,0.018-6.102c0.114-1.404,0.358-2.773,0.769-4.008V54.706v-0.025
		c-0.026,0.027-0.051,0.043-0.077,0.073c-0.011,0.023-0.02,0.041-0.028,0.063c-0.07,0.151-0.134,0.294-0.189,0.424
		c-0.009,0.017-0.017,0.034-0.022,0.051c-0.064,0.148-0.121,0.284-0.169,0.406c-0.002,0.004-0.003,0.008-0.005,0.012
		c-0.3,0.759-0.313,1.016-0.336,1.107c-0.004,0.018-0.005,0.019-0.007,0.026c-0.006,0.019-0.009,0.021-0.031,0.026l-0.021,0.006
		c-0.383,0.157-0.766,0.314-1.146,0.471c-0.887,0.361-1.756,0.729-2.608,1.102c-0.059,0.026-0.121,0.051-0.18,0.076
		c-0.129,0.047-0.284,0.094-0.438,0.142v58.948l-12.708-0.002V61.85v-0.033c-0.175,0.039-0.351,0.081-0.524,0.12
		c-0.888,0.193-1.779,0.388-2.676,0.583c-1.032,0.225-2.077,0.453-3.153,0.688v11.298v7.563c1.25,1.496,2.306,3.213,3.05,4.959
		c0.885,2.057,1.363,4.11,1.57,5.927c0.416,3.69-0.046,6.595-0.673,8.957c-0.647,2.374-1.536,4.214-2.503,5.688
		c-0.354,0.526-0.853,1.244-1.444,2.039v7.973l-0.002,0.002h-7.234c-1.443,1.332-2.664,2.369-3.262,3.027
		c-2.474,2.53-4.942,4.83-7.465,7.023c-0.03,1.182-0.074,2.42-0.139,3.73c-0.157,2.146-0.731,8.303-1.411,14.615
		c-0.182,1.609-0.362,3.23-0.539,4.801c-0.182,1.612-0.399,3.11-0.595,4.526c-0.116,0.806-0.232,1.563-0.348,2.274
		c0.357,0.847,0.572,1.832,0.572,2.984c0,2.393-0.835,4.188-2.226,5.227c-0.707,3.244-1.386,6.388-1.994,9.515h32.18
		c0.307-1.608,0.558-3.183,0.769-4.687C135.397,168.804,135.876,166.33,136.836,163.879z M140.132,135.283
		c1.568,0,2.722,0.655,3.474,1.425l-1.504,1.682c-0.386-0.416-1.121-0.834-1.777-0.834c-1.232,0-2.209,0.881-2.32,3.475
		c0.593-0.752,1.602-1.168,2.272-1.168c1.985,0,3.489,1.152,3.489,3.744c0,2.529-1.792,4.033-3.921,4.033
		c-2.241,0-4.45-1.744-4.45-6.082C135.394,137.252,137.666,135.283,140.132,135.283z M119.941,166.616h-2.608v-4.082
		c0-1.186,0.225-2.961,0.368-4.129h-0.063l-0.992,2.849l-1.602,4.354h-1.567l-1.617-4.354l-0.96-2.849h-0.064
		c0.146,1.168,0.368,2.943,0.368,4.129v4.082h-2.561v-11.909h3.089l1.889,5.14c0.24,0.688,0.434,1.439,0.656,2.176h0.08
		c0.24-0.735,0.433-1.487,0.656-2.176l1.824-5.14h3.104V166.616z M126.932,162.663h-1.394v3.953h-2.865v-11.909h4.179
		c2.625,0,4.785,0.929,4.785,3.874C131.637,161.414,129.444,162.663,126.932,162.663z"/>
	<path fill="#F7DDEB" d="M111.148,75.06c-0.121,0.003-0.239,0.015-0.36,0.019c-0.132,1.094-0.258,2.173-0.373,3.21
		c-0.188,1.598-0.351,3.642-0.534,5.516c-0.183,1.891-0.38,3.735-0.602,5.504c-0.257,2.047-0.552,3.973-0.89,5.767
		c0.014-0.003,0.024-0.005,0.04-0.007c0.099-0.014,0.193-0.028,0.276-0.041c0.011-0.002,0.021-0.004,0.03-0.006
		c0.063-0.014,0.12-0.024,0.179-0.037c0.167-0.035,0.316-0.067,0.452-0.1c0.159-0.039,0.309-0.08,0.466-0.136
		c0.003-0.001,0.007-0.002,0.01-0.003c0.03-0.01,0.056-0.018,0.082-0.025c0.012-0.002,0.021-0.006,0.03-0.009
		c0.037-0.011,0.075-0.026,0.112-0.041c0.063-0.022,0.129-0.042,0.195-0.069l0.036-0.017l0.2-0.086
		c0.063-0.03,0.104-0.054,0.142-0.074c0.001-0.001,0.002-0.001,0.004-0.002c0.009-0.005,0.016-0.008,0.022-0.013l0.006-0.004
		l0.013-0.006c0.039-0.021,0.059-0.033,0.071-0.041c0.005-0.004,0.007-0.006,0.011-0.008c0.021-0.016,0.033-0.022,0.002,0
		l-0.034,0.03c-0.009,0.009-0.015,0.015-0.023,0.021c-0.069,0.063-0.187,0.183-0.322,0.344c-0.039,0.046-0.076,0.092-0.109,0.139
		c-0.009,0.012-0.021,0.023-0.029,0.036c-0.012,0.015-0.024,0.032-0.037,0.048c0.139,0.252,0.243,0.684,0.286,1.188
		c0.114,1.313-0.173,3.02-0.589,4.505c-0.415,1.506-0.959,2.851-1.441,3.86c-0.065,0.138-0.13,0.258-0.192,0.383h5.875V75.354
		C113.147,75.215,112.137,75.108,111.148,75.06z"/>
	<path fill="#F7DDEB" d="M108.722,98.033c0-0.03-0.001-0.111-0.001-0.194C108.721,97.957,108.722,98.013,108.722,98.033z"/>
	<path fill="#F7DDEB" d="M109.942,94.717c-0.046,0.009,0.014,0.007,0.021,0.011c0.05-0.008,0.083,0.039,0.136,0.076
		c0.041,0.037,0.077,0.1,0.114,0.166c0.059-0.076,0.113-0.148,0.166-0.213c0.004-0.003,0.006-0.006,0.011-0.01
		c0.017-0.021,0.029-0.041,0.049-0.063c0,0,0,0,0.001-0.002l0.166-0.179l0.001-0.001c0.03-0.031,0.066-0.066,0.105-0.1
		c0.005-0.004,0.016-0.016,0.02-0.02c0.001,0,0.002-0.001,0.003-0.002c0.015-0.014,0.028-0.025,0.035-0.031
		c0.009-0.006,0.005-0.002-0.012,0.008c-0.023,0.016-0.057,0.035-0.07,0.041h-0.001l-0.013,0.006
		c-0.001,0.002-0.004,0.003-0.005,0.004c-0.006,0.004-0.017,0.009-0.023,0.013c-0.001,0.001-0.001,0.001-0.002,0.001l-0.14,0.073
		l-0.004,0.002c-0.006,0.003-0.007,0.003-0.012,0.006l-0.188,0.08l-0.033,0.015c-0.001,0-0.002,0.002-0.003,0.002l-0.054,0.021
		c-0.074,0.031-0.144,0.055-0.215,0.076c-0.013,0.004-0.025,0.009-0.04,0.013c-0.002,0.001-0.005,0.002-0.007,0.003
		S109.944,94.716,109.942,94.717z"/>
	<path fill="#F7DDEB" d="M110.2,94.987c0.004-0.006,0.009-0.012,0.014-0.018c0-0.002,0-0.002,0-0.002
		C110.209,94.976,110.204,94.981,110.2,94.987z"/>
	<path fill="#F7DDEB" d="M79.882,94.317c-1.063,0.99-2.118,2.033-3.146,3.244c-0.246,0.315-0.478,0.627-0.709,0.938v6.403h5.34
		c-0.119-0.553-0.229-1.108-0.354-1.659C80.546,100.677,80.1,97.521,79.882,94.317z"/>
	<path fill="#F7DDEB" d="M109.663,95.819l0.242,0.041l0.106,0.019l0.025,0.005c0.317,0.11-0.095-0.033-0.342-0.119
		C109.685,95.782,109.675,95.802,109.663,95.819z"/>
	<path fill="#F7DDEB" d="M108.74,117.612c0.177,2.656,0.261,5.976,0.156,10.052c2.521-2.192,4.991-4.493,7.465-7.024
		c0.598-0.656,1.817-1.695,3.262-3.025h-5.472h-5.411V117.612z"/>
	<path fill="#F7DDEB" d="M16.48,109.784c-0.001,0,0.275-1.629,0.802-4.135c0.521-2.51,1.321-5.873,2.253-9.428
		c0.926-3.521,1.999-7.377,2.802-10.599c0.867-3.515,1.548-6.803,1.821-9.345c0,0,0.225-0.489,0.563-1.313
		c0.33-0.831,0.793-1.99,1.319-3.31c0.625-1.65,1.259-3.57,1.686-5.487c0.313-2.192,0.496-3.476,0.496-3.476
		c-0.052,1.114-0.234,2.295-0.496,3.476c-0.172,1.2-0.381,2.67-0.622,4.359c0.31-1.688,0.614-3.359,0.914-4.988
		c0.369-2.161,0.822-4.215,1.286-6.151c-2.02,2.118-4.055,3.403-5.874,5.082c-1.325,1.318-2.686,2.781-4.063,4.433
		c-0.197,1.015-0.407,2.056-0.644,3.14c-0.07,0.362-0.146,0.743-0.218,1.111c-0.401,2.315-0.898,4.646-1.521,7.01
		c-0.322,1.307-0.661,2.625-1.042,3.96c-0.156,0.558-0.295,0.998-0.438,1.449c-0.155,0.487-0.313,0.978-0.469,1.468
		c-0.198,0.614-0.421,1.256-0.636,1.89c-1.464,5.026-2.771,10.211-3.582,16.76c-0.039,0.183-0.088,0.449-0.143,0.771
		c-0.142,1.3-0.214,2.38-0.194,3.056c0,0-0.047,0.355-0.116,0.891c-0.067,0.537-0.17,1.238-0.237,1.98
		c-0.07,0.734-0.144,1.471-0.196,2.022c-0.021,0.304-0.038,0.547-0.05,0.713c0.048,1.073,0.113,2.188,0.197,3.331l5.81,5.809
		c-0.309-1.918-0.471-3.796-0.509-5.563C15.309,115.158,15.715,112.041,16.48,109.784z"/>
	<path fill="#F7DDEB" d="M126.859,109.64c0.593-0.797,1.092-1.514,1.444-2.039c0.967-1.477,1.854-3.315,2.503-5.689
		c0.627-2.362,1.089-5.266,0.673-8.957c-0.207-1.816-0.687-3.87-1.57-5.927c-0.744-1.746-1.8-3.463-3.05-4.959v22.839V109.64z"/>
	<path fill="#F7DDEB" d="M81.261,119.101c0.076-0.047,0.521-0.617,1.208-1.486h-1.756C80.927,118.085,81.152,118.541,81.261,119.101
		z"/>
	<path fill="#F7DDEB" d="M39.393,27.21c-0.206,1.312-0.414,2.757-0.617,4.191l-0.221,1.554c1.011-2.349,2.04-4.718,3.063-6.794
		c1.013-1.961,1.952-3.678,2.719-4.912c-0.536,0.732-1.074,1.444-1.617,2.119C41.575,24.749,40.471,26.025,39.393,27.21z"/>
	<path fill="#F7DDEB" d="M65.135,117.817c-3.522,5.754-5.785,10.104-7.386,13.384c0.271-0.091,0.547-0.175,0.805-0.283l0.003,0.001
		c0.006,0.001,0.159,0.038,0.473,0.111c0.313,0.076,0.791,0.185,1.445,0.277c0.448-0.248,1.124-0.623,1.981-1.099
		c1.6-0.862,3.794-2.129,6.236-3.503c0.197-0.109,0.397-0.221,0.598-0.332c0.15-0.188,0.284-0.389,0.442-0.572
		c-1.452,1.643,0.801-2.049,3.511-5.763c0.148-0.203,0.297-0.406,0.447-0.608c-0.315,0.146-0.618,0.28-0.892,0.397
		c-0.939,0.426-1.571,0.677-1.571,0.678c1.042-0.901,2.047-1.886,3.051-2.894h-9.033C65.208,117.683,65.172,117.748,65.135,117.817z
		"/>
	<path fill="#F7DDEB" d="M50.951,10.418c-0.659,1.304-1.337,2.541-2.029,3.719c-0.71,1.166-1.396,2.291-2.06,3.38
		c-0.541,0.872-1.092,1.699-1.647,2.501c0.184-0.188,0.483-0.505,0.898-0.97c0.62-0.677,1.413-1.665,2.36-2.85
		c0.283-0.649,0.551-1.255,0.791-1.801c1.048-2.385,1.646-3.748,1.646-3.748c0.954-1.883,1.9-3.749,2.828-5.579
		c0.964-1.741,1.918-3.44,2.874-5.07H56.53c-0.913,1.563-1.823,3.181-2.744,4.843C52.819,6.657,51.923,8.543,50.951,10.418z"/>
	<path fill="#FFFFFF" d="M62.06,7.357c-0.177,0.877-0.646,1.993-1.047,3.155c-0.918,2.09-1.823,4.097-2.729,6.049
		c-0.911,1.949-1.822,3.844-2.625,5.767c-0.835,1.908-1.683,3.793-2.554,5.684c-0.439,0.945-0.88,1.893-1.324,2.847
		c-0.411,0.967-0.826,1.94-1.245,2.925c-1.575,4.253-2.947,7.892-3.991,11.635c-1.087,3.729-2.319,7.413-3.495,11.798
		c-1.25,4.14-2.202,7.934-2.946,11.749c-0.803,3.804-1.736,7.545-2.828,11.668c-0.695,2.75-1.281,5.248-1.785,7.725
		c-0.504,2.527-0.92,4.891-1.241,7.391c-0.318,2.49-0.546,5.081-0.636,7.923c-0.087,2.841-0.044,5.94,0.313,9.358
		c0.188,1.791,0.469,4.412,1.124,7.205c0.304,1.41,0.764,2.818,1.276,4.191c0.539,1.354,1.211,2.609,1.946,3.699
		c0.75,1.076,1.609,1.913,2.466,2.576c0.854,0.662,1.803,1.051,2.675,1.388c1.852,0.567,3.599,0.603,5.06,0.462
		c0.697-0.1,1.457-0.229,2.247-0.255c0.813-0.088,1.646-0.101,2.531-0.205c0.864-0.054,1.777-0.217,2.64-0.354
		c0.638-0.152,1.25-0.291,1.834-0.483c0.009-0.019,0.017-0.034,0.024-0.051c-1.357,0.448-2.867,0.688-4.321,0.83
		c-1.771,0.2-3.383,0.202-4.778,0.489c-1.443,0.133-3.244,0.117-5.088-0.428c-1.804-0.572-3.637-1.73-5.158-3.865
		c-1.521-2.107-2.628-5.026-3.267-7.811c-0.666-2.781-0.958-5.395-1.152-7.18c-0.36-3.411-0.421-6.508-0.337-9.346
		c0.084-2.84,0.308-5.43,0.624-7.918c0.318-2.498,0.733-4.865,1.236-7.385c0.505-2.489,1.09-4.977,1.784-7.73
		c0.605-2.047,0.992-4.044,1.514-5.958c0.483-1.922,0.903-3.813,1.31-5.713c0.428-1.895,0.743-3.823,1.27-5.756
		c0.505-1.938,1.044-3.925,1.669-5.993c1.177-4.384,2.392-8.072,3.485-11.798c1.046-3.743,2.399-7.387,3.982-11.638
		c3.438-7.838,6.714-14.939,10.459-23.272c0.399-1.159,0.854-2.287,1.038-3.158c0.178-0.877,1.299-2.936,1.762-4.061
		C64.467,2.307,65.172,1.146,65.881,0h-0.092c-0.663,1.075-1.322,2.164-1.966,3.294C63.362,4.42,62.24,6.474,62.06,7.357z"/>
	<path opacity="0.9" fill="#E8A2C6" enable-background="new    " d="M62.06,7.357c-0.177,0.877-0.646,1.993-1.047,3.155
		c-0.918,2.09-1.823,4.097-2.729,6.049c-0.911,1.949-1.822,3.844-2.625,5.767c-0.835,1.908-1.683,3.793-2.554,5.684
		c-0.439,0.945-0.88,1.893-1.324,2.847c-0.411,0.967-0.826,1.94-1.245,2.925c-1.575,4.253-2.947,7.892-3.991,11.635
		c-1.087,3.729-2.319,7.413-3.495,11.798c-1.25,4.14-2.202,7.934-2.946,11.749c-0.803,3.804-1.736,7.545-2.828,11.668
		c-0.695,2.75-1.281,5.248-1.785,7.725c-0.504,2.527-0.92,4.891-1.241,7.391c-0.318,2.49-0.546,5.081-0.636,7.923
		c-0.087,2.841-0.044,5.94,0.313,9.358c0.188,1.791,0.469,4.412,1.124,7.205c0.304,1.41,0.764,2.818,1.276,4.191
		c0.539,1.354,1.211,2.609,1.946,3.699c0.75,1.076,1.609,1.913,2.466,2.576c0.854,0.662,1.803,1.051,2.675,1.388
		c1.852,0.567,3.599,0.603,5.06,0.462c0.697-0.1,1.457-0.229,2.247-0.255c0.813-0.088,1.646-0.101,2.531-0.205
		c0.864-0.054,1.777-0.217,2.64-0.354c0.638-0.152,1.25-0.291,1.834-0.483c0.009-0.019,0.017-0.034,0.024-0.051
		c-1.357,0.448-2.867,0.688-4.321,0.83c-1.771,0.2-3.383,0.202-4.778,0.489c-1.443,0.133-3.244,0.117-5.088-0.428
		c-1.804-0.572-3.637-1.73-5.158-3.865c-1.521-2.107-2.628-5.026-3.267-7.811c-0.666-2.781-0.958-5.395-1.152-7.18
		c-0.36-3.411-0.421-6.508-0.337-9.346c0.084-2.84,0.308-5.43,0.624-7.918c0.318-2.498,0.733-4.865,1.236-7.385
		c0.505-2.489,1.09-4.977,1.784-7.73c0.605-2.047,0.992-4.044,1.514-5.958c0.483-1.922,0.903-3.813,1.31-5.713
		c0.428-1.895,0.743-3.823,1.27-5.756c0.505-1.938,1.044-3.925,1.669-5.993c1.177-4.384,2.392-8.072,3.485-11.798
		c1.046-3.743,2.399-7.387,3.982-11.638c3.438-7.838,6.714-14.939,10.459-23.272c0.399-1.159,0.854-2.287,1.038-3.158
		c0.178-0.877,1.299-2.936,1.762-4.061C64.467,2.307,65.172,1.146,65.881,0h-0.092c-0.663,1.075-1.322,2.164-1.966,3.294
		C63.362,4.42,62.24,6.474,62.06,7.357z"/>
	<path fill="#F7DDEB" d="M59.889,8.346c-0.753,1.567-1.829,3.811-3.125,6.512c-0.65,1.353-1.354,2.819-2.104,4.374
		c-0.684,1.583-1.407,3.255-2.157,4.988c-0.753,1.735-1.532,3.531-2.328,5.362c-0.764,1.844-1.467,3.751-2.216,5.65
		c-0.743,1.902-1.487,3.813-2.226,5.701c-0.668,1.913-1.329,3.806-1.972,5.647c-0.646,1.844-1.275,3.638-1.878,5.353
		c-0.583,1.722-1.062,3.387-1.559,4.931c-0.994,3.091-1.849,5.748-2.49,7.742c-0.6,2.006-1.05,3.333-1.293,3.741
		c0,0-0.296,1.054-0.826,2.944c-0.257,0.948-0.57,2.106-0.936,3.447c-0.369,1.341-0.663,2.891-1.045,4.588
		c-0.729,3.401-1.587,7.443-2.423,11.911c-0.839,4.47-1.647,9.389-2.034,14.553c-0.37,5.15-0.339,10.59,0.745,15.8
		c0.546,2.595,1.37,5.122,2.563,7.382c0.097,0.182,0.21,0.346,0.312,0.523c1.229,1.841,2.701,3.482,4.418,4.689
		c1.584,1.144,3.336,1.904,5.131,2.312c1.807,0.409,3.563,0.558,5.438,0.508c1.263-0.021,2.489-0.126,3.677-0.286
		c1.564-0.379,3.021-0.904,4.342-1.531c1.228-0.584,2.342-1.246,3.317-1.949c0,0,1.626-0.534,3.986-1.498
		c0.067-0.026,0.142-0.057,0.209-0.084c-0.632-0.049-1.202-0.104-1.702-0.166c-0.593,0.048-1.204,0.1-1.853,0.156
		c0,0,0.222-0.123,0.611-0.338c-0.654-0.094-1.133-0.201-1.445-0.277c-0.313-0.073-0.467-0.11-0.473-0.111l-0.004-0.001
		c-0.257,0.108-0.531,0.192-0.804,0.283c-0.009,0.017-0.017,0.032-0.024,0.051c-0.584,0.192-1.196,0.331-1.834,0.483
		c-0.861,0.139-1.774,0.302-2.64,0.354c-0.885,0.104-1.72,0.117-2.532,0.205c-0.79,0.026-1.549,0.155-2.246,0.255
		c-1.462,0.141-3.208,0.105-5.06-0.462c-0.872-0.337-1.82-0.726-2.675-1.388c-0.855-0.663-1.716-1.5-2.466-2.576
		c-0.735-1.09-1.407-2.346-1.946-3.7c-0.514-1.372-0.974-2.78-1.276-4.19c-0.655-2.793-0.938-5.414-1.124-7.205
		c-0.356-3.418-0.399-6.52-0.313-9.358c0.09-2.842,0.315-5.433,0.636-7.923c0.321-2.5,0.737-4.863,1.241-7.391
		c0.504-2.477,1.09-4.975,1.785-7.725c1.092-4.123,2.025-7.864,2.828-11.668c0.744-3.815,1.696-7.609,2.946-11.749
		c1.176-4.385,2.408-8.068,3.495-11.798c1.044-3.743,2.416-7.382,3.991-11.635c0.419-0.984,0.834-1.958,1.245-2.925
		c0.444-0.954,0.885-1.901,1.324-2.847c0.871-1.891,1.719-3.775,2.554-5.684c0.803-1.923,1.714-3.817,2.625-5.767
		c0.905-1.952,1.811-3.959,2.729-6.049c0.399-1.162,0.87-2.278,1.047-3.155c0.181-0.884,1.303-2.938,1.764-4.063
		c0.644-1.13,1.303-2.219,1.966-3.294h-2.204c-0.833,2.119-1.727,4.342-2.423,5.943C61.162,5.943,60.7,6.814,59.889,8.346z"/>
	<path opacity="0.9" fill="#E8A2C6" enable-background="new    " d="M59.889,8.346c-0.753,1.567-1.829,3.811-3.125,6.512
		c-0.65,1.353-1.354,2.819-2.104,4.374c-0.684,1.583-1.407,3.255-2.157,4.988c-0.753,1.735-1.532,3.531-2.328,5.362
		c-0.764,1.844-1.467,3.751-2.216,5.65c-0.743,1.902-1.487,3.813-2.226,5.701c-0.668,1.913-1.329,3.806-1.972,5.647
		c-0.646,1.844-1.275,3.638-1.878,5.353c-0.583,1.722-1.062,3.387-1.559,4.931c-0.994,3.091-1.849,5.748-2.49,7.742
		c-0.6,2.006-1.05,3.333-1.293,3.741c0,0-0.296,1.054-0.826,2.944c-0.257,0.948-0.57,2.106-0.936,3.447
		c-0.369,1.341-0.663,2.891-1.045,4.588c-0.729,3.401-1.587,7.443-2.423,11.911c-0.839,4.47-1.647,9.389-2.034,14.553
		c-0.37,5.15-0.339,10.59,0.745,15.8c0.546,2.595,1.37,5.122,2.563,7.382c0.097,0.182,0.21,0.346,0.312,0.523
		c1.229,1.841,2.701,3.482,4.418,4.689c1.584,1.144,3.336,1.904,5.131,2.312c1.807,0.409,3.563,0.558,5.438,0.508
		c1.263-0.021,2.489-0.126,3.677-0.286c1.564-0.379,3.021-0.904,4.342-1.531c1.228-0.584,2.342-1.246,3.317-1.949
		c0,0,1.626-0.534,3.986-1.498c0.067-0.026,0.142-0.057,0.209-0.084c-0.632-0.049-1.202-0.104-1.702-0.166
		c-0.593,0.048-1.204,0.1-1.853,0.156c0,0,0.222-0.123,0.611-0.338c-0.654-0.094-1.133-0.201-1.445-0.277
		c-0.313-0.073-0.467-0.11-0.473-0.111l-0.004-0.001c-0.257,0.108-0.531,0.192-0.804,0.283c-0.009,0.017-0.017,0.032-0.024,0.051
		c-0.584,0.192-1.196,0.331-1.834,0.483c-0.861,0.139-1.774,0.302-2.64,0.354c-0.885,0.104-1.72,0.117-2.532,0.205
		c-0.79,0.026-1.549,0.155-2.246,0.255c-1.462,0.141-3.208,0.105-5.06-0.462c-0.872-0.337-1.82-0.726-2.675-1.388
		c-0.855-0.663-1.716-1.5-2.466-2.576c-0.735-1.09-1.407-2.346-1.946-3.7c-0.514-1.372-0.974-2.78-1.276-4.19
		c-0.655-2.793-0.938-5.414-1.124-7.205c-0.356-3.418-0.399-6.52-0.313-9.358c0.09-2.842,0.315-5.433,0.636-7.923
		c0.321-2.5,0.737-4.863,1.241-7.391c0.504-2.477,1.09-4.975,1.785-7.725c1.092-4.123,2.025-7.864,2.828-11.668
		c0.744-3.815,1.696-7.609,2.946-11.749c1.176-4.385,2.408-8.068,3.495-11.798c1.044-3.743,2.416-7.382,3.991-11.635
		c0.419-0.984,0.834-1.958,1.245-2.925c0.444-0.954,0.885-1.901,1.324-2.847c0.871-1.891,1.719-3.775,2.554-5.684
		c0.803-1.923,1.714-3.817,2.625-5.767c0.905-1.952,1.811-3.959,2.729-6.049c0.399-1.162,0.87-2.278,1.047-3.155
		c0.181-0.884,1.303-2.938,1.764-4.063c0.644-1.13,1.303-2.219,1.966-3.294h-2.204c-0.833,2.119-1.727,4.342-2.423,5.943
		C61.162,5.943,60.7,6.814,59.889,8.346z"/>
	<path fill="#F7DDEB" d="M50.911,10.649c0,0-0.599,1.363-1.646,3.748c-0.24,0.546-0.508,1.151-0.791,1.801
		c0.104-0.133,0.204-0.256,0.313-0.393c1.098-1.364,2.306-3.011,3.466-4.889c0.58-0.939,1.148-1.937,1.687-2.988
		c0.533-1.053,1.036-2.157,1.558-3.285c0,0,1.068-1.561,2.538-3.708c0.208-0.295,0.438-0.621,0.66-0.936h-2.081
		c-0.956,1.63-1.91,3.329-2.874,5.07C52.812,6.9,51.865,8.767,50.911,10.649z"/>
	<path opacity="0.9" fill="#E8A2C6" enable-background="new    " d="M50.911,10.649c0,0-0.599,1.363-1.646,3.748
		c-0.24,0.546-0.508,1.151-0.791,1.801c0.104-0.133,0.204-0.256,0.313-0.393c1.098-1.364,2.306-3.011,3.466-4.889
		c0.58-0.939,1.148-1.937,1.687-2.988c0.533-1.053,1.036-2.157,1.558-3.285c0,0,1.068-1.561,2.538-3.708
		c0.208-0.295,0.438-0.621,0.66-0.936h-2.081c-0.956,1.63-1.91,3.329-2.874,5.07C52.812,6.9,51.865,8.767,50.911,10.649z"/>
	<path fill="#EDB6D3" d="M37.916,144.978c0.584,0.25,1.146,0.526,1.686,0.705c0.444,0.143,0.871,0.287,1.278,0.422
		c1.613,0.428,3.266,0.695,4.858,0.807c1.2,0.092,2.421,0.089,3.646,0.041c2.063-0.081,4.14-0.333,6.171-0.787
		c1.275-0.284,2.533-0.654,3.778-1.07c0.841-1.353,1.683-2.714,2.419-4.123c1.62-2.986,2.778-5.931,4.043-8.658
		c0.084-0.181,0.169-0.357,0.254-0.537c0.089-0.185,0.175-0.373,0.265-0.557c-0.632,0.014-1.312,0.043-2.046,0.086
		c-0.293,0.123-0.575,0.238-0.852,0.352c-0.067,0.027-0.142,0.058-0.209,0.084c-2.36,0.964-3.986,1.498-3.986,1.498
		c-0.977,0.703-2.091,1.365-3.317,1.949c-1.319,0.627-2.776,1.152-4.342,1.531c-0.691,0.168-1.396,0.314-2.129,0.418
		c-0.986,0.168-2.006,0.203-3.064,0.241c-0.511-0.017-1.026-0.032-1.547-0.05c-0.535-0.008-1.021-0.129-1.554-0.193
		c-2.074-0.354-4.169-1.177-6.028-2.574c-1.711-1.275-3.188-3.037-4.34-5.063c-0.102-0.179-0.215-0.343-0.312-0.524
		c-1.192-2.259-2.018-4.785-2.563-7.381c-1.084-5.21-1.115-10.648-0.745-15.8c0.387-5.164,1.195-10.083,2.034-14.552
		c0.836-4.469,1.692-8.511,2.423-11.912c0.382-1.697,0.676-3.247,1.045-4.588c0.364-1.341,0.679-2.499,0.936-3.447
		c0.53-1.891,0.826-2.944,0.826-2.944c0.243-0.408,0.693-1.735,1.293-3.741c0.643-1.994,1.496-4.651,2.49-7.742
		c0.497-1.544,0.977-3.209,1.56-4.931c0.602-1.715,1.229-3.509,1.877-5.353c0.643-1.842,1.304-3.734,1.972-5.647
		c0.737-1.889,1.481-3.799,2.226-5.701c0.749-1.899,1.452-3.807,2.216-5.65c0.796-1.831,1.575-3.627,2.328-5.362
		c0.75-1.733,1.475-3.405,2.157-4.988c0.748-1.555,1.452-3.021,2.104-4.374c1.296-2.701,2.372-4.944,3.125-6.512
		c0.812-1.531,1.272-2.402,1.272-2.402c0.696-1.602,1.59-3.824,2.423-5.943h-4.891c-0.222,0.314-0.452,0.641-0.66,0.936
		c-1.47,2.147-2.538,3.708-2.538,3.708c-0.521,1.128-1.023,2.232-1.558,3.285c-0.537,1.052-1.105,2.049-1.687,2.988
		c-1.16,1.878-2.368,3.524-3.466,4.889c-0.108,0.137-0.208,0.26-0.313,0.393c-0.947,1.185-1.74,2.173-2.36,2.85
		c-0.415,0.465-0.716,0.781-0.898,0.97c-0.114,0.118-0.193,0.197-0.193,0.197c-0.207,0.289-0.438,0.638-0.684,1.034
		c-0.767,1.234-1.706,2.951-2.719,4.912c-1.023,2.076-2.054,4.445-3.063,6.794l-0.124,0.873c-0.114,0.807-0.226,1.607-0.388,2.509
		c-0.313,1.751-0.626,3.512-0.941,5.286c-0.307,1.781-0.821,3.525-1.269,5.312c-0.839,3.024-1.769,5.499-2.821,7.326
		c-1.035,1.886-2.117,3.362-3.208,4.596c-0.167,0.188-0.334,0.357-0.501,0.533c-0.464,1.937-0.917,3.99-1.286,6.151
		c-0.3,1.629-0.604,3.3-0.914,4.988c-0.051,0.352-0.103,0.709-0.154,1.078c-0.449,2.684-0.691,5.849-1.101,9.256
		c-0.38,3.365-0.789,6.984-1.204,10.656c-0.866,7.438-1.508,15.357-1.389,22.01c0.033,6.646,1.021,12.068,1.025,14.236
		c0,0,0.106,0.467,0.306,1.342c0.101,0.438,0.236,0.977,0.458,1.615c0.219,0.637,0.434,1.367,0.811,2.185
		c0.303,0.755,0.712,1.59,1.212,2.469c0.04,0.063,0.087,0.13,0.128,0.194l7.941,7.941c0.333,0.203,0.664,0.396,0.996,0.574
		C36.729,144.446,37.33,144.728,37.916,144.978z"/>
	<path fill="#F2CBDF" d="M27.725,66.17c0.262-1.181,0.444-2.361,0.496-3.476C28.221,62.694,28.037,63.978,27.725,66.17z"/>
	<path fill="#F2CBDF" d="M25.854,132.907c-0.377-0.816-0.592-1.549-0.811-2.186c-0.222-0.639-0.357-1.178-0.458-1.613
		c-0.198-0.875-0.306-1.342-0.306-1.342c-0.005-2.168-0.992-7.593-1.025-14.238c-0.12-6.65,0.521-14.571,1.389-22.008
		c0.415-3.673,0.823-7.292,1.204-10.658c0.408-3.407,0.65-6.572,1.101-9.256c0.053-0.369,0.104-0.727,0.154-1.078
		c0.24-1.689,0.449-3.159,0.622-4.359c-0.427,1.917-1.061,3.837-1.686,5.487c-0.526,1.319-0.989,2.479-1.319,3.31
		c-0.338,0.823-0.563,1.313-0.563,1.313c-0.273,2.542-0.954,5.83-1.821,9.345c-0.803,3.222-1.876,7.076-2.802,10.599
		c-0.932,3.555-1.73,6.918-2.253,9.428c-0.525,2.507-0.803,4.135-0.802,4.135c-0.767,2.257-1.172,5.374-1.102,8.916
		c0.038,1.768,0.2,3.645,0.509,5.563l11.255,11.256c-0.028-0.049-0.05-0.094-0.076-0.143
		C26.566,134.497,26.157,133.662,25.854,132.907z"/>
	<path fill="#FAECF3" d="M110.214,94.97L110.214,94.97c0.013-0.016,0.025-0.033,0.037-0.048c0.009-0.013,0.021-0.024,0.029-0.036
		c0.033-0.047,0.07-0.093,0.109-0.139c-0.005,0.004-0.007,0.007-0.011,0.01C110.327,94.819,110.271,94.894,110.214,94.97z"/>
	<path fill="#FAECF3" d="M109.911,100.661c0.416-1.484,0.703-3.193,0.589-4.504c-0.043-0.506-0.147-0.938-0.286-1.188
		c-0.005,0.006-0.01,0.012-0.014,0.018c0.004-0.006,0.009-0.014,0.014-0.02c-0.037-0.066-0.073-0.128-0.114-0.164
		c-0.053-0.037-0.086-0.086-0.136-0.078c-0.008-0.002-0.066-0.002-0.021-0.01c0.002-0.001,0.004-0.002,0.007-0.002
		c0.002-0.001,0.005-0.002,0.007-0.003c-0.01,0.003-0.02,0.006-0.03,0.009c-0.026,0.01-0.052,0.018-0.081,0.025
		c-0.004,0.001-0.008,0.002-0.011,0.003c-0.156,0.056-0.307,0.097-0.466,0.135c-0.136,0.032-0.285,0.063-0.452,0.101
		c-0.059,0.013-0.113,0.023-0.179,0.037c-0.011,0.002-0.021,0.004-0.03,0.006c-0.083,0.013-0.179,0.027-0.276,0.041
		c-0.016,0.002-0.026,0.004-0.04,0.006c-0.062,0.32-0.122,0.636-0.187,0.943c-0.159,0.782-0.33,1.53-0.512,2.242
		c-0.04,0.158-0.076,0.332-0.117,0.486c-0.041,0.222-0.072,0.422-0.108,0.633c-0.001,0.003-0.001,0.006-0.002,0.01
		c-0.059,0.344-0.112,0.688-0.159,1.016c0.445-0.149,0.722-0.17,0.741-0.074c0.007-0.003-0.004,0.132-0.003,0.303
		c0,0.025-0.001,0.051,0,0.076c0.017,0.083-0.016,0.238-0.039,0.372c-0.002,0.101-0.092,0.297-0.183,0.429
		c-0.132,0.192-0.362,0.406-0.72,0.684c-0.038,0.484-0.069,0.984-0.087,1.533c0.048,0.217,0.11,0.676,0.177,1.18h1.084
		c0.063-0.125,0.127-0.245,0.191-0.383C108.952,103.513,109.496,102.167,109.911,100.661z M108.721,97.839c0-0.001,0-0.002,0-0.003
		C108.721,97.837,108.721,97.838,108.721,97.839c0,0.083,0.001,0.164,0.001,0.194C108.722,98.013,108.721,97.957,108.721,97.839z
		 M110.038,95.884l-0.025-0.005l-0.106-0.019l-0.242-0.041c0.012-0.018,0.021-0.037,0.033-0.057
		C109.943,95.851,110.355,95.994,110.038,95.884z"/>
	<path fill="#FAECF3" d="M110.644,94.424c0.001,0,0.001,0,0.002-0.001c-0.002,0.001-0.003,0.001-0.004,0.002
		c-0.038,0.021-0.079,0.043-0.142,0.074l0.004-0.002L110.644,94.424z"/>
	<path fill="#FAECF3" d="M110.675,94.407l-0.006,0.003c-0.008,0.005-0.015,0.008-0.022,0.013c0.008-0.004,0.019-0.009,0.023-0.013
		C110.671,94.409,110.674,94.408,110.675,94.407z"/>
	<path fill="#FAECF3" d="M110.734,94.384c-0.001,0.002-0.002,0.002-0.003,0.002c-0.004,0.004-0.015,0.016-0.02,0.02
		C110.721,94.397,110.727,94.392,110.734,94.384l0.035-0.029c0.031-0.023,0.021-0.017-0.002,0c-0.004,0.002-0.006,0.004-0.011,0.006
		c0.017-0.01,0.021-0.012,0.012-0.006C110.763,94.358,110.749,94.37,110.734,94.384z"/>
	<path fill="#FAECF3" d="M110.605,94.505l-0.166,0.18c-0.001,0-0.001,0-0.001,0.002c-0.02,0.021-0.032,0.041-0.049,0.062
		c0.137-0.161,0.253-0.278,0.322-0.343C110.674,94.438,110.637,94.472,110.605,94.505L110.605,94.505z"/>
	<line fill="none" x1="110.687" y1="94.399" x2="110.675" y2="94.407"/>
	<path fill="#FAECF3" d="M110.501,94.499l-0.2,0.086l0.188-0.08C110.494,94.502,110.495,94.502,110.501,94.499z"/>
	<line fill="none" x1="108.721" y1="97.836" x2="108.721" y2="97.839"/>
	<path fill="#FAECF3" d="M110.688,94.399c0.015-0.004,0.047-0.024,0.07-0.041C110.745,94.367,110.726,94.379,110.688,94.399
		L110.688,94.399z"/>
	<polygon fill="#FAECF3" points="110.301,94.585 110.264,94.601 110.267,94.601 	"/>
	<path fill="#FAECF3" d="M110.211,94.623l0.054-0.022c-0.066,0.028-0.132,0.049-0.195,0.07c-0.037,0.014-0.075,0.03-0.112,0.041
		c0.015-0.004,0.027-0.009,0.04-0.014C110.067,94.677,110.136,94.653,110.211,94.623z"/>
	<path fill="#FEF9FC" d="M107.103,102.192c0.356-0.277,0.588-0.491,0.72-0.685c0.091-0.132,0.181-0.327,0.183-0.429
		c0.023-0.133,0.056-0.289,0.039-0.372c-0.001-0.026,0-0.052,0-0.076c-0.001-0.171,0.01-0.306,0.003-0.303
		c-0.021-0.095-0.296-0.075-0.741,0.073c-0.021,0.142-0.04,0.283-0.059,0.422C107.188,101.272,107.14,101.728,107.103,102.192z"/>
	<path fill="#FDE7C6" d="M62.64,80.982c-2.36,1.366-4.524,2.613-6.653,3.612c-1.131,0.524-2.245,1.078-3.283,1.713
		c-1.055,0.622-2.061,1.331-2.965,2.068c-1.84,1.47-3.29,3.065-4.646,4.235c-0.224,0.188-0.431-0.15-0.589-0.76
		c0.071,0.313,0.148,0.59,0.238,0.767c0.127,0.25,0.236,0.29,0.4,0.214c1.362-1.176,2.744-2.787,4.581-4.268
		c1.801-1.516,3.952-2.778,6.195-3.816c2.121-1.004,4.273-2.258,6.627-3.627c0.253-0.146,0.517-0.297,0.771-0.444v-0.083
		C63.093,80.723,62.861,80.854,62.64,80.982z"/>
	<path fill="#FDE7C6" d="M113.052,59.585c0,0.001,0,0.003-0.001,0.005c0.029-0.016,0.061-0.032,0.089-0.048
		C113.109,59.557,113.081,59.57,113.052,59.585z"/>
	<path fill="#FDE7C6" d="M131.824,55.138c-4.983,1.012-10.729,2.568-13.919,4.277c0,0-1.563,0.079-3.553,0.477
		c-0.453,0.088-0.931,0.196-1.412,0.321c-0.094,0.525-0.189,1.044-0.28,1.583h14.199v1.311v0.101
		c1.076-0.234,2.121-0.463,3.153-0.688c0.896-0.195,1.787-0.39,2.676-0.583c0.175-0.039,0.351-0.081,0.524-0.12v-6.965
		C132.758,54.942,132.295,55.037,131.824,55.138z"/>
	<path fill="#FDE7C6" d="M151.003,50.566c-0.396,0.316-0.896,0.686-1.397,0.995c-0.255,0.153-0.515,0.283-0.793,0.39
		c-0.14,0.053-0.281,0.098-0.428,0.132l-0.688,0.234c-0.269,0.086-0.535,0.172-0.8,0.257c-0.329,0.103-0.65,0.187-0.976,0.275v5.742
		v0.074c0.153-0.048,0.31-0.095,0.438-0.142c0.059-0.025,0.121-0.05,0.18-0.076c0.854-0.373,1.723-0.74,2.608-1.102
		c0.381-0.156,0.764-0.313,1.146-0.471l0.021-0.006c0.022-0.005,0.025-0.008,0.031-0.026c0.002-0.008,0.003-0.009,0.007-0.026
		c0.021-0.092,0.036-0.349,0.336-1.107c0.002-0.004,0.003-0.008,0.005-0.012c0.048-0.122,0.104-0.258,0.169-0.406
		c0.007-0.017,0.015-0.034,0.021-0.051c0.058-0.13,0.12-0.271,0.19-0.424c0.01-0.022,0.018-0.04,0.028-0.063
		c0.026-0.03,0.051-0.046,0.077-0.073v-4.255C151.122,50.472,151.068,50.515,151.003,50.566z"/>
	<path fill="#FDE7C6" d="M169.326,78.44c0,0-2.042-6.588-3.962-16.045c-0.239-1.167-0.422-2.608-0.666-3.679
		c-0.258-0.961-0.527-1.877-0.805-2.742c-0.002-0.005-0.003-0.01-0.005-0.015v61.653H151.18v-7.23
		c-0.076,1.941-0.231,3.938-0.421,6.059c-0.431,2.332-1.575,4.27-2.205,6.808c-0.697,2.967-1.02,5.595-1.235,8.196
		c-0.114,1.361-0.266,2.705-0.455,4.063h6.518v1.729c-2.753,3.281-3.041,5.521-3.249,10.181h-2.864
		c0.224-3.922,0.832-6.435,3.072-9.54h-3.851c-0.078,0.459-0.156,0.916-0.245,1.385c-2.875,9.766-4.127,14.084-4.502,16.072
		c-0.377,1.994,0.05,1.652-0.199,2.004c-0.414,0.979-1.023,1.518-1.701,2.105l2.229,7.174h-3.009l-0.688-2.737h-1.536
		c-0.96,2.451-1.438,4.925-1.669,6.772c-0.211,1.504-0.462,3.076-0.769,4.687h5.007c0.48-0.573,0.984-1.112,1.572-1.702
		c1.551-1.373,2.251-4.199,3.19-6.82c0.021-0.066,0.052-0.131,0.073-0.198h-0.929v-11.909h2.913l2.102,4.045
		c0.249-0.492,0.486-0.992,0.693-1.506c0.472-1.114,0.846-2.215,1.139-3.311c0.278-1.101,0.505-2.181,0.744-3.227
		c0.479-2.093,1.005-4.047,2.09-5.79c-0.93,1.483,0.306-2.006,1.597-5.44c0.217-0.541,0.429-1.082,0.633-1.604h-0.263v-2.369h1.191
		c0.562-1.406,0.875-2.086,0.656-1.039c-0.016-0.354,0.855-1.188,1.31-1.255c0.228,0.147,0.678,0.079,0.69,0.435
		c0.024,0.789,0.171,1.383,0.383,1.859h3.261c0.293-0.789,0.631-1.693,1.005-2.65c0.54-1.395,1.143-2.885,1.744-4.235
		c0.563-1.353,1.063-2.563,1.564-3.394c1.591-2.504,3.221-4.687,4.278-8.217c0.146-0.941-0.367-1.555-0.225-2.5
		c0.062-0.265,0.135-0.908,0.217-1.836c0.049-0.931,0.081-2.146,0.119-3.553c0.062-2.801,0.14-6.364,0.219-9.951
		c0.142-3.564,0.016-7.166,0.061-10.031c0.025-2.87,0.121-5.018,0.338-5.724c0.622-1.655,1.87-3.695,2.434-3.139
		c0.347,0.143,0.67,0.142,0.98,0.047v-6.586c-1.097,2.308-2.244,4.361-3.271,5.428C170.792,80.288,169.868,80.32,169.326,78.44z"/>
	<path fill="#FDE7C6" d="M145.746,158.261h-0.08c0.128,1.329,0.368,2.961,0.368,4.402v0.152c0.327-0.569,0.662-1.141,0.999-1.715
		l-0.119-0.23L145.746,158.261z"/>
	<path fill="#FDE7C6" d="M150.412,92.239c-0.237,2.13-0.18,4.318-0.018,6.103c0.404,2.604,0.656,5.229,0.785,7.96V88.233
		C150.771,89.467,150.526,90.836,150.412,92.239z"/>
	<path fill="#FFFFFF" d="M44.625,88.351c0.462-1.771,1.247-3.315,2.324-4.816c1.055-1.465,2.234-2.659,3.444-3.713
		c2.436-2.07,4.99-3.599,7.539-5.197c0.75-0.649,2.354-1.647,2.815-2.214c0.453-0.581,1.229-1.176,2.006-1.761
		c0.189-0.119,0.374-0.225,0.563-0.341v-0.069c-0.15,0.093-0.298,0.176-0.449,0.271c-0.777,0.583-1.554,1.178-2.007,1.758
		c-0.458,0.563-2.067,1.559-2.82,2.208c-2.552,1.593-5.111,3.108-7.556,5.167c-1.214,1.043-2.398,2.223-3.466,3.669
		c-1.103,1.506-1.886,3.046-2.379,4.81c-0.164,0.475-0.211,1.045-0.286,1.593c-0.045,0.556-0.008,1.111,0.026,1.58
		c0.015,0.074,0.029,0.134,0.044,0.203c-0.075-0.465-0.064-1.003-0.063-1.554C44.422,89.396,44.497,88.833,44.625,88.351z"/>
	<path opacity="0.9" fill="#F9C06B" enable-background="new    " d="M44.625,88.351c0.462-1.771,1.247-3.315,2.324-4.816
		c1.055-1.465,2.234-2.659,3.444-3.713c2.436-2.07,4.99-3.599,7.539-5.197c0.75-0.649,2.354-1.647,2.815-2.214
		c0.453-0.581,1.229-1.176,2.006-1.761c0.189-0.119,0.374-0.225,0.563-0.341v-0.069c-0.15,0.093-0.298,0.176-0.449,0.271
		c-0.777,0.583-1.554,1.178-2.007,1.758c-0.458,0.563-2.067,1.559-2.82,2.208c-2.552,1.593-5.111,3.108-7.556,5.167
		c-1.214,1.043-2.398,2.223-3.466,3.669c-1.103,1.506-1.886,3.046-2.379,4.81c-0.164,0.475-0.211,1.045-0.286,1.593
		c-0.045,0.556-0.008,1.111,0.026,1.58c0.015,0.074,0.029,0.134,0.044,0.203c-0.075-0.465-0.064-1.003-0.063-1.554
		C44.422,89.396,44.497,88.833,44.625,88.351z"/>
	<path fill="#FFFFFF" d="M80.112,61.74c1.599-0.828,3.068-1.605,4.48-2.354c0.002-0.023,0.004-0.046,0.006-0.069
		c-1.381,0.729-2.815,1.487-4.372,2.292c-0.14,0.063-0.271,0.126-0.407,0.188h0.173C80.033,61.777,80.071,61.759,80.112,61.74z"/>
	<path opacity="0.9" fill="#F9C06B" enable-background="new    " d="M80.112,61.74c1.599-0.828,3.068-1.605,4.48-2.354
		c0.002-0.023,0.004-0.046,0.006-0.069c-1.381,0.729-2.815,1.487-4.372,2.292c-0.14,0.063-0.271,0.126-0.407,0.188h0.173
		C80.033,61.777,80.071,61.759,80.112,61.74z"/>
	<path fill="#FFFFFF" d="M114.604,46.044c2.081-0.635,3.969-1.266,5.788-1.94h-0.182c-1.762,0.646-3.594,1.253-5.606,1.865
		C114.604,45.994,114.604,46.019,114.604,46.044z"/>
	<path opacity="0.9" fill="#F9C06B" enable-background="new    " d="M114.604,46.044c2.081-0.635,3.969-1.266,5.788-1.94h-0.182
		c-1.762,0.646-3.594,1.253-5.606,1.865C114.604,45.994,114.604,46.019,114.604,46.044z"/>
	<path fill="#FDE7C6" d="M45.092,92.61c1.356-1.168,2.808-2.766,4.646-4.234c0.904-0.737,1.91-1.446,2.965-2.068
		c1.038-0.635,2.152-1.188,3.283-1.713c2.129-0.999,4.293-2.246,6.653-3.612c0.222-0.128,0.452-0.26,0.678-0.389v-1.761
		c-1.785,0.769-4.77,2.108-7.179,3.464c-1.858,1.006-3.405,2.016-4.083,2.157c-0.343,0.063-0.469-0.108-0.276-0.615
		c0.191-0.506,0.706-1.352,1.72-2.479c0,0,1.074-1.407,2.596-2.986c1.514-1.585,3.466-3.323,4.861-4.385
		c0,0,0.863-0.549,2.361-1.415v-2.267c-0.188,0.116-0.373,0.222-0.563,0.341c-0.776,0.585-1.553,1.18-2.006,1.761
		c-0.461,0.566-2.065,1.564-2.815,2.214c-2.549,1.599-5.104,3.127-7.539,5.197c-1.21,1.054-2.391,2.248-3.444,3.713
		c-1.077,1.501-1.862,3.047-2.324,4.817c-0.128,0.481-0.203,1.043-0.263,1.592c-0.002,0.551-0.013,1.088,0.063,1.554
		c0.001,0.007,0.001,0.017,0.002,0.022c0.022,0.123,0.051,0.224,0.075,0.334C44.661,92.461,44.868,92.799,45.092,92.61z"/>
	<path opacity="0.9" fill="#F9C06B" enable-background="new    " d="M45.092,92.61c1.356-1.168,2.808-2.766,4.646-4.234
		c0.904-0.737,1.91-1.446,2.965-2.068c1.038-0.635,2.152-1.188,3.283-1.713c2.129-0.999,4.293-2.246,6.653-3.612
		c0.222-0.128,0.452-0.26,0.678-0.389v-1.761c-1.785,0.769-4.77,2.108-7.179,3.464c-1.858,1.006-3.405,2.016-4.083,2.157
		c-0.343,0.063-0.469-0.108-0.276-0.615c0.191-0.506,0.706-1.352,1.72-2.479c0,0,1.074-1.407,2.596-2.986
		c1.514-1.585,3.466-3.323,4.861-4.385c0,0,0.863-0.549,2.361-1.415v-2.267c-0.188,0.116-0.373,0.222-0.563,0.341
		c-0.776,0.585-1.553,1.18-2.006,1.761c-0.461,0.566-2.065,1.564-2.815,2.214c-2.549,1.599-5.104,3.127-7.539,5.197
		c-1.21,1.054-2.391,2.248-3.444,3.713c-1.077,1.501-1.862,3.047-2.324,4.817c-0.128,0.481-0.203,1.043-0.263,1.592
		c-0.002,0.551-0.013,1.088,0.063,1.554c0.001,0.007,0.001,0.017,0.002,0.022c0.022,0.123,0.051,0.224,0.075,0.334
		C44.661,92.461,44.868,92.799,45.092,92.61z"/>
	<path fill="#FDE7C6" d="M84.594,59.385c-1.413,0.749-2.884,1.527-4.481,2.354c-0.041,0.019-0.079,0.037-0.12,0.056h4.231
		c0.077-0.037,0.155-0.076,0.233-0.113C84.51,60.914,84.553,60.149,84.594,59.385z"/>
	<path opacity="0.9" fill="#F9C06B" enable-background="new    " d="M84.594,59.385c-1.413,0.749-2.884,1.527-4.481,2.354
		c-0.041,0.019-0.079,0.037-0.12,0.056h4.231c0.077-0.037,0.155-0.076,0.233-0.113C84.51,60.914,84.553,60.149,84.594,59.385z"/>
	<path fill="#FDE7C6" d="M114.468,50.029c1.677-0.604,3.566-1.287,5.642-2.035c2.59-0.963,5.449-2.026,8.473-3.15
		c0.63-0.245,1.271-0.492,1.916-0.74h-10.104c-1.819,0.675-3.707,1.306-5.788,1.94C114.624,47.382,114.569,48.727,114.468,50.029z"
		/>
	<path opacity="0.9" fill="#F9C06B" enable-background="new    " d="M114.468,50.029c1.677-0.604,3.566-1.287,5.642-2.035
		c2.59-0.963,5.449-2.026,8.473-3.15c0.63-0.245,1.271-0.492,1.916-0.74h-10.104c-1.819,0.675-3.707,1.306-5.788,1.94
		C114.624,47.382,114.569,48.727,114.468,50.029z"/>
	<path fill="#FACD89" d="M145.922,44.104v0.269c0.082-0.024,0.174-0.056,0.252-0.078c1.065-0.308,1.86-0.395,2.291-0.226
		c0,0,1.043-0.129,2.716-0.604v-0.36l-5.258-5.257L145.922,44.104z"/>
	<path fill="#FACD89" d="M120.108,47.994c-2.074,0.748-3.965,1.431-5.642,2.035c-0.112,1.454-0.279,2.847-0.458,4.108
		c-0.134,0.949-0.271,1.829-0.397,2.592c-0.194,0.915-0.379,1.875-0.561,2.855c0.029-0.015,0.059-0.028,0.088-0.043
		c0.236-0.13,0.466-0.257,0.717-0.393c3.366-1.889,7.992-4.3,12.835-6.651c2.173-1.027,4.36-2.056,6.522-3.019v-3.41v-1.966h-2.717
		c-0.645,0.248-1.286,0.495-1.916,0.74C125.558,45.968,122.698,47.031,120.108,47.994z"/>
	<path fill="#FACD89" d="M56.094,78.374c-1.521,1.579-2.596,2.986-2.596,2.986c-1.014,1.127-1.527,1.973-1.72,2.479
		c-0.191,0.507-0.065,0.678,0.276,0.615c0.678-0.142,2.225-1.151,4.083-2.157c2.409-1.355,5.394-2.695,7.179-3.464v-4.328v-1.931
		c-1.498,0.866-2.361,1.415-2.361,1.415C59.56,75.051,57.607,76.789,56.094,78.374z"/>
	<path fill="#FACD89" d="M84.224,61.796h0.227c0.002-0.038,0.006-0.076,0.008-0.113C84.38,61.72,84.302,61.759,84.224,61.796z"/>
	<path fill="#FCDAA9" d="M163.889,55.813v0.146c0.002,0.005,0.003,0.01,0.005,0.015c0.276,0.865,0.547,1.781,0.805,2.742
		c0.244,1.07,0.427,2.512,0.666,3.679c1.92,9.457,3.962,16.045,3.962,16.045c0.542,1.88,1.466,1.848,2.591,0.726
		c1.025-1.066,2.174-3.12,3.271-5.428v-6.627L163.889,55.813z"/>
	<path fill="#FCDAA9" d="M113.855,59.149c-0.251,0.136-0.479,0.263-0.717,0.393c-0.028,0.016-0.06,0.032-0.089,0.048
		c-0.036,0.204-0.072,0.416-0.109,0.623c0.481-0.125,0.959-0.233,1.412-0.321c1.988-0.397,3.553-0.477,3.553-0.477
		c3.19-1.709,8.936-3.266,13.919-4.277c0.471-0.101,0.934-0.195,1.39-0.286v-5.063V49.48c-2.162,0.963-4.351,1.991-6.522,3.019
		C121.848,54.85,117.222,57.261,113.855,59.149z"/>
	<path fill="#FCDAA9" d="M146.174,44.294c-0.078,0.022-0.17,0.054-0.252,0.078v0.201v8.276c0.324-0.09,0.646-0.174,0.976-0.275
		c0.265-0.085,0.531-0.171,0.8-0.257l0.688-0.234c0.146-0.034,0.288-0.079,0.428-0.132c0.278-0.106,0.538-0.236,0.793-0.39
		c0.503-0.31,1.002-0.679,1.397-0.995c0.065-0.052,0.119-0.095,0.178-0.141v-6.927c0.077-0.035,0.159-0.07,0.239-0.105
		c-0.08,0.023-0.163,0.049-0.239,0.071c-1.673,0.475-2.716,0.604-2.716,0.604C148.034,43.899,147.239,43.986,146.174,44.294z"/>
	<path fill="#FEF1DE" d="M158.809,133.647c-0.014-0.355-0.464-0.287-0.69-0.436c-0.453,0.068-1.324,0.9-1.31,1.254
		c0.219-1.046-0.096-0.367-0.656,1.04h3.039C158.979,135.028,158.834,134.437,158.809,133.647z"/>
	<path fill="#FEF1DE" d="M174.206,80.277c-0.563-0.557-1.812,1.483-2.434,3.139c-0.217,0.706-0.313,2.854-0.338,5.724
		c-0.045,2.865,0.081,6.467-0.061,10.031c-0.079,3.587-0.157,7.15-0.219,9.951c-0.038,1.404-0.07,2.622-0.119,3.553
		c-0.082,0.928-0.155,1.571-0.217,1.836c-0.145,0.945,0.369,1.559,0.225,2.5c-1.059,3.53-2.688,5.713-4.278,8.217
		c-0.503,0.83-1.003,2.041-1.564,3.394c-0.603,1.351-1.204,2.842-1.744,4.235c-0.374,0.957-0.712,1.86-1.005,2.65h0.672v1.729
		c-1.643,1.957-2.403,3.547-2.799,5.498c0.324-0.396,0.648-0.797,0.973-1.215c0.438-0.564,0.875-1.144,1.313-1.752
		c0.478-0.606,1.148-1.738,1.931-3.16c0.953-1.733,2.071-3.9,3.207-6.092c0.252-0.5,0.519-1.002,0.753-1.5
		c0.22-0.496,0.438-0.99,0.649-1.474c0.42-0.974,0.824-1.911,1.197-2.774c0.733-1.733,1.321-3.188,1.628-4.052
		c0.867-2.276,1.427-4.612,1.947-6.935c0.417-2.09,0.748-4.168,1.263-6.202V85.306v-4.981
		C174.876,80.419,174.552,80.42,174.206,80.277z"/>
	<path fill="#FFFBF5" d="M157.086,146.39c-0.015,0.016-0.027,0.03-0.042,0.045c-0.652,0.643-1.314,1.264-1.982,1.875
		c-1.265,1.274-1.818,3.78-2.818,5.974c-0.084,0.151-0.17,0.286-0.256,0.425h0.786v3.152c0.201-0.699,0.37-1.4,0.453-2.102
		c0.03-0.472,0.354-1.207,0.684-1.703c1.88-2.227,3.695-4.414,5.493-6.64h-2.394C157.03,147.06,157.058,146.726,157.086,146.39z"/>
	<path fill="#FFFBF5" d="M149.524,166.37c0.022-0.082,0.057-0.167,0.081-0.249l-1.649-3.22c-0.021,0.09-0.055,0.181-0.072,0.27
		c-0.069,0.346-0.117,0.688-0.124,1.02c-1.16,2.588-2.394,5.117-3.697,7.615c-0.631,1.189-1.296,2.363-1.979,3.532h1.192h2.21
		c0.938-1.521,1.846-3.084,2.706-4.72C148.941,169.194,149.081,167.782,149.524,166.37z"/>
	<path fill="#FFFBF5" d="M171.977,120.716c-0.307,0.863-0.895,2.317-1.628,4.053c-0.373,0.862-0.777,1.801-1.197,2.773
		c-0.213,0.482-0.431,0.977-0.649,1.475c-0.234,0.496-0.501,1-0.753,1.498c-1.136,2.191-2.254,4.358-3.207,6.094
		c-0.78,1.42-1.453,2.553-1.931,3.158c-0.438,0.609-0.876,1.188-1.313,1.752c-0.323,0.418-0.647,0.818-0.973,1.217
		c-0.233,1.158-0.34,2.447-0.418,4.016c1.598-2.122,3.191-4.277,4.824-6.542c0.598-0.757,1.391-2.119,2.264-3.786
		c0.883-1.66,1.868-3.611,2.82-5.559c0.501-0.977,0.901-1.938,1.283-2.858c0.383-0.924,0.746-1.805,1.076-2.604
		c0.655-1.604,1.164-2.896,1.412-3.565c0.714-2.173,1.229-4.079,1.6-5.745v-6.857v-1.651c-0.515,2.035-0.846,4.112-1.263,6.202
		C173.403,116.104,172.844,118.438,171.977,120.716z"/>
	<path fill="#FFFBF5" d="M149.188,160.405l1.168,2.642h0.08c-0.159-1.265-0.385-2.978-0.385-4.401v-0.5
		c-0.339,0.643-0.69,1.301-1.018,1.965L149.188,160.405z"/>
	<path fill="#C7E8FA" d="M99.661,2.315c0.026,0.052,0.049,0.093,0.076,0.148c0.343,0.678,0.833,1.667,1.42,2.916
		c0.57,1.246,1.15,2.74,1.808,4.438c0.272,0.794,0.562,1.638,0.846,2.514h2.648c-0.367-0.992-0.597-1.768-0.694-2.91
		c-0.099-0.521-0.892-1.393-2.011-2.983c-0.54-0.791-1.234-1.775-1.974-2.981c-0.369-0.604-0.748-1.262-1.136-1.983
		c-0.272-0.462-0.551-0.959-0.829-1.474H99.52c0.003,0.04,0.005,0.071,0.008,0.115C99.548,0.605,99.64,1.344,99.661,2.315z"/>
	<path fill="#C7E8FA" d="M88.028,27.642c-0.219-0.862-0.449-1.729-0.682-2.598h-5.5c0.001,0.002,0.002,0.003,0.002,0.005
		c0.548,2.04,1.021,4.158,1.424,6.346h5.691C88.66,30.154,88.35,28.904,88.028,27.642z"/>
	<path fill="#C7E8FA" d="M106.878,31.395h4.132c-0.016-0.354-0.028-0.705-0.05-1.063c-0.044-0.867-0.087-1.727-0.128-2.558
		c-0.169-0.918-0.349-1.829-0.544-2.729h-3.741c0.114,1.029,0.208,2.06,0.271,3.081C106.874,29.229,106.895,30.321,106.878,31.395z"
		/>
	<path fill="#C7E8FA" d="M104.168,49.928c-0.004,0.023-0.008,0.045-0.013,0.068c-0.223,1.203-0.467,2.446-0.729,3.698
		c-0.296,1.418-0.611,2.844-0.944,4.222c-0.138,0.56-0.276,1.11-0.417,1.651c-0.199,0.769-0.402,1.515-0.606,2.229h7.153h0.158
		c0.02-0.038,0.04-0.071,0.061-0.11c0.74-1.453,1.385-3.325,1.604-5.408c0.031-0.194,0.058-0.401,0.088-0.6
		c0.218-1.416,0.396-2.905,0.536-4.433c0.126-1.384,0.221-2.788,0.275-4.186c0.001-0.024,0.001-0.049,0.002-0.073
		c0.038-0.973,0.056-1.934,0.058-2.883h-6.258c-0.081,0.558-0.172,1.156-0.271,1.789C104.667,47.132,104.433,48.5,104.168,49.928z"
		/>
	<path fill="#C7E8FA" d="M89.556,9.797c0.424,0.833,0.849,1.678,1.272,2.535h0.113C90.487,11.484,90.026,10.644,89.556,9.797z"/>
	<path fill="#C7E8FA" d="M71.479,1.527c1.292,2.273,2.502,4.782,4.346,8.199c0.456,0.836,0.898,1.711,1.331,2.605h6.233
		c-1.221-3.353-2.569-6.59-4.083-9.505C78.796,1.84,78.267,0.899,77.725,0h-7.108h-0.088c0.188,0.279,0.374,0.567,0.555,0.863
		C71.217,1.082,71.35,1.302,71.479,1.527z"/>
	<path fill="#C7E8FA" d="M29.303,59.39c0.167-0.176,0.334-0.346,0.501-0.533c1.091-1.233,2.173-2.71,3.208-4.596
		c1.054-1.827,1.982-4.302,2.821-7.326c0.446-1.786,0.962-3.53,1.269-5.312c0.315-1.774,0.63-3.535,0.941-5.286
		c0.162-0.901,0.272-1.702,0.388-2.509l0.124-0.873l0.221-1.554c0.203-1.435,0.411-2.88,0.617-4.191
		c0.025-0.168,0.053-0.342,0.079-0.505c0.234-1.487,0.482-2.976,0.753-4.468c0.302-1.377,0.635-2.714,0.988-4.08
		c0.002-0.009,0.006-0.018,0.008-0.026l0.273-1.027l0.366-1.289l0.521-1.835l0.418-1.652c0.308-1.3,0.62-2.629,0.934-3.952
		c0.149-0.637,0.297-1.257,0.448-1.899c0.628-2.479,1.169-4.6,1.71-6.476H45.81h-6.916c-0.149,0.645-0.296,1.295-0.438,1.951
		c-0.426,1.986-0.798,3.997-1.184,5.996c-0.391,2.002-0.738,3.911-1.205,5.855c0,0-0.084,0.183-0.238,0.518
		c-0.038,0.081-0.08,0.172-0.126,0.271c-0.036,0.069-0.075,0.145-0.117,0.226c-0.084,0.163-0.179,0.349-0.285,0.556
		c-0.419,0.83-0.986,2.006-1.579,3.381c-0.617,1.34-1.16,3.027-1.609,4.724c-0.112,0.427-0.219,0.854-0.316,1.282
		c-0.06,0.379-0.115,0.741-0.167,1.067c-0.263,1.757-0.411,2.752-0.411,2.752c0.077-1.27,0.288-2.545,0.578-3.819
		c0.098-0.612,0.201-1.284,0.317-2.023c0.124-0.763,0.25-1.609,0.403-2.48c-1.126,5.408-2.05,10.942-3.159,15.725
		c-0.013,0.055-0.024,0.113-0.037,0.168c-0.387,1.662-0.74,3.216-1.109,4.613c-0.418,1.386-0.809,2.626-1.166,3.692
		c-0.715,2.132-1.293,3.562-1.681,4.05c0,0-0.121,0.409-0.38,1.091c-0.258,0.683-0.63,1.665-1.083,2.864
		c-0.822,2.165-1.918,5.041-3.146,8.023c-0.249,1.731-0.538,3.857-0.979,6.251c-0.125,0.697-0.265,1.43-0.409,2.171
		c1.378-1.651,2.737-3.114,4.063-4.433C25.249,62.793,27.284,61.508,29.303,59.39z"/>
	<path fill="#C7E8FA" d="M102.344,103.417c-0.071-0.615-0.145-1.236-0.217-1.861c-0.022-0.209-0.047-0.416-0.07-0.625
		c-0.104-0.898-0.208-1.803-0.313-2.709c-0.092-0.799-0.182-1.598-0.271-2.394c-0.527-4.651-1.025-9.212-1.393-12.984
		c-0.1-1.101-0.193-2.133-0.28-3.08c-0.057-0.742-0.105-1.411-0.143-2.041c-0.008-0.146-0.021-0.301-0.026-0.44
		c-0.022-0.588-0.036-1.093-0.044-1.548c-0.006-0.49-0.002-0.904,0.018-1.229H82.548c-0.063,0.27-0.125,0.535-0.188,0.81
		c-0.398,1.648-0.78,3.451-1.116,4.955c-0.337,1.397-0.623,2.583-0.805,3.338c-0.749,3.041-0.813,6.91-0.557,10.71
		c0.219,3.203,0.664,6.357,1.132,8.927c0.124,0.551,0.233,1.106,0.354,1.659h21.15c-0.032-0.27-0.063-0.539-0.096-0.813
		C102.396,103.867,102.37,103.642,102.344,103.417z"/>
	<path fill="#C7E8FA" d="M84.458,61.683c-0.002,0.037-0.006,0.075-0.008,0.113h11.142c-0.162-0.748-0.34-1.571-0.528-2.464
		c-0.148-0.689-0.308-1.432-0.47-2.202c-0.171-0.812-0.351-1.674-0.536-2.568c-0.004-0.02-0.01-0.04-0.014-0.061
		c-0.636-3.053-1.361-6.561-2.188-10.397h-7.181c0,0.015,0.001,0.029,0.003,0.044c0.243,5.182,0.188,10.15-0.08,15.168
		c-0.002,0.023-0.005,0.046-0.006,0.069C84.553,60.149,84.51,60.914,84.458,61.683z"/>
	<path fill="#FFFFFF" d="M7.323,63.31c3.71-10.175,6.044-17.397,8.922-27.487c1.362-4.806,2.175-9.354,3.191-13.929
		c0.521-2.297,0.981-4.569,1.731-6.918c0.351-1.17,0.719-2.348,1.109-3.538l0.298-0.893l0.265-0.748
		c0.19-0.485,0.352-1.045,0.532-1.589c0.785-2.741,1.295-5.505,1.78-8.208h-0.065c-0.472,2.622-0.976,5.289-1.716,7.964
		c-0.186,0.538-0.34,1.107-0.524,1.602c-0.186,0.507-0.343,0.955-0.553,1.596c-0.392,1.191-0.76,2.37-1.11,3.54
		c-0.748,2.35-1.234,4.629-1.746,6.924c-1.028,4.581-1.826,9.136-3.19,13.938c-2.857,10.095-5.179,17.308-8.896,27.484
		c-1.902,4.745-3.684,9.311-5.441,13.967c-0.727,1.886-1.4,3.848-2.072,5.84v0.194c0.663-1.966,1.325-3.907,2.043-5.77
		C3.638,72.623,5.422,68.059,7.323,63.31z"/>
	<path opacity="0.9" fill="#4AC1F1" enable-background="new    " d="M7.323,63.31c3.71-10.175,6.044-17.397,8.922-27.487
		c1.362-4.806,2.175-9.354,3.191-13.929c0.521-2.297,0.981-4.569,1.731-6.918c0.351-1.17,0.719-2.348,1.109-3.538l0.298-0.893
		l0.265-0.748c0.19-0.485,0.352-1.045,0.532-1.589c0.785-2.741,1.295-5.505,1.78-8.208h-0.065c-0.472,2.622-0.976,5.289-1.716,7.964
		c-0.186,0.538-0.34,1.107-0.524,1.602c-0.186,0.507-0.343,0.955-0.553,1.596c-0.392,1.191-0.76,2.37-1.11,3.54
		c-0.748,2.35-1.234,4.629-1.746,6.924c-1.028,4.581-1.826,9.136-3.19,13.938c-2.857,10.095-5.179,17.308-8.896,27.484
		c-1.902,4.745-3.684,9.311-5.441,13.967c-0.727,1.886-1.4,3.848-2.072,5.84v0.194c0.663-1.966,1.325-3.907,2.043-5.77
		C3.638,72.623,5.422,68.059,7.323,63.31z"/>
	<path fill="#C7E8FA" d="M2.894,80.728c0.71-1.918,1.46-3.945,2.236-6.046c1.556-4.204,3.22-8.707,4.896-13.242
		c0.855-2.255,1.716-4.517,2.564-6.754c0.822-2.233,1.635-4.441,2.426-6.592c0.831-2.144,1.457-4.256,2.146-6.266
		c0.661-2.014,1.354-3.921,1.823-5.754c0.519-1.822,1-3.517,1.436-5.05c0.426-1.548,0.806-2.932,1.13-4.119
		c0.662-2.367,1.192-3.94,1.454-4.426c0,0,0.347-1.239,0.968-3.464c0.628-2.217,1.722-5.4,2.86-9.285
		C27.605,6.892,28.15,3.584,28.768,0h-3.614c-0.485,2.703-0.995,5.467-1.779,8.208c-0.182,0.544-0.342,1.104-0.532,1.589
		l-0.265,0.748l-0.298,0.893c-0.392,1.19-0.76,2.368-1.109,3.538c-0.75,2.349-1.21,4.621-1.731,6.918
		c-1.018,4.575-1.829,9.123-3.191,13.929c-2.878,10.09-5.212,17.313-8.922,27.487c-1.901,4.749-3.686,9.313-5.444,13.97
		c-0.718,1.862-1.38,3.804-2.043,5.77v6.491c0.347-1.043,0.728-2.16,1.152-3.346C1.577,84.504,2.216,82.671,2.894,80.728z"/>
	<path opacity="0.9" fill="#4AC1F1" enable-background="new    " d="M2.894,80.728c0.71-1.918,1.46-3.945,2.236-6.046
		c1.556-4.204,3.22-8.707,4.896-13.242c0.855-2.255,1.716-4.517,2.564-6.754c0.822-2.233,1.635-4.441,2.426-6.592
		c0.831-2.144,1.457-4.256,2.146-6.266c0.661-2.014,1.354-3.921,1.823-5.754c0.519-1.822,1-3.517,1.436-5.05
		c0.426-1.548,0.806-2.932,1.13-4.119c0.662-2.367,1.192-3.94,1.454-4.426c0,0,0.347-1.239,0.968-3.464
		c0.628-2.217,1.722-5.4,2.86-9.285C27.605,6.892,28.15,3.584,28.768,0h-3.614c-0.485,2.703-0.995,5.467-1.779,8.208
		c-0.182,0.544-0.342,1.104-0.532,1.589l-0.265,0.748l-0.298,0.893c-0.392,1.19-0.76,2.368-1.109,3.538
		c-0.75,2.349-1.21,4.621-1.731,6.918c-1.018,4.575-1.829,9.123-3.191,13.929c-2.878,10.09-5.212,17.313-8.922,27.487
		c-1.901,4.749-3.686,9.313-5.444,13.97c-0.718,1.862-1.38,3.804-2.043,5.77v6.491c0.347-1.043,0.728-2.16,1.152-3.346
		C1.577,84.504,2.216,82.671,2.894,80.728z"/>
	<path fill="#7ECEF4" d="M90.942,12.332h9.325c0.074-1.257,0.074-2.726-0.064-4.438c-0.142-0.439-0.282-0.863-0.421-1.274
		c-0.033-0.097-0.066-0.201-0.1-0.297c-0.648-1.74-1.208-3.183-1.617-4.191c-0.457-1.004-0.72-1.582-0.72-1.582
		C97.213,0.371,97.075,0.182,96.94,0h-1.615H84.076c1.854,2.945,3.671,6.25,5.479,9.797C90.026,10.644,90.487,11.484,90.942,12.332z
		"/>
	<path fill="#7ECEF4" d="M24.985,49.595c0.259-0.682,0.38-1.091,0.38-1.091c0.388-0.488,0.966-1.918,1.681-4.05
		c0.357-1.066,0.748-2.307,1.166-3.692c0.369-1.397,0.724-2.951,1.109-4.613c0.013-0.055,0.024-0.113,0.037-0.168
		c1.109-4.782,2.033-10.316,3.159-15.725c0.087-0.49,0.18-0.986,0.291-1.485c0.29-1.42,0.604-2.962,0.938-4.6
		c0.119-0.53,0.24-1.067,0.362-1.612c0.141-0.582,0.211-1.091,0.313-1.643c0.104-0.553,0.185-1.085,0.254-1.611
		c0.074-0.53,0.158-1.077,0.215-1.593c0.32-2.606,0.548-5.19,0.804-7.712h-3.64h-3.287c-0.617,3.585-1.162,6.893-1.936,9.73
		c-1.14,3.885-2.232,7.068-2.86,9.285c-0.621,2.225-0.968,3.464-0.968,3.464c-0.262,0.485-0.792,2.059-1.454,4.426
		c-0.324,1.188-0.704,2.571-1.13,4.119c-0.436,1.533-0.917,3.228-1.436,5.05c-0.469,1.833-1.162,3.74-1.823,5.754
		c-0.688,2.01-1.313,4.122-2.146,6.266c-0.791,2.15-1.604,4.358-2.426,6.592c-0.85,2.237-1.709,4.499-2.564,6.754
		c-1.676,4.535-3.34,9.038-4.896,13.242c-0.776,2.101-1.526,4.128-2.236,6.046c-0.679,1.943-1.316,3.776-1.905,5.467
		c-0.426,1.186-0.807,2.303-1.152,3.346v16.171c0.475-1.172,0.932-2.305,1.346-3.334c0.273-0.693,0.528-1.342,0.759-1.922
		c0.246-0.576,0.465-1.086,0.646-1.51c0.359-0.848,0.572-1.35,0.572-1.35c0.719-2.771,1.586-5.392,2.655-7.707
		c1.056-2.319,2.17-4.371,3.186-6.072c0.094-0.159,0.187-0.301,0.279-0.454c0.901-1.481,1.774-2.691,2.387-3.535
		c0.422-0.571,0.729-0.961,0.913-1.193c0.294-0.501,0.588-0.992,0.884-1.472c0.776-1.472,1.729-3.503,2.729-5.806
		c1.318-3.037,2.771-6.553,4.167-9.911c0.048-0.113,0.094-0.226,0.141-0.339c0.087-0.209,0.173-0.417,0.259-0.625
		c1.229-2.982,2.324-5.858,3.146-8.023C24.355,51.26,24.728,50.277,24.985,49.595z"/>
	<path fill="#A7DCF7" d="M31.63,25.827c0.052-0.326,0.107-0.688,0.167-1.067c-0.29,1.274-0.501,2.55-0.577,3.819
		C31.219,28.579,31.367,27.584,31.63,25.827z"/>
	<path fill="#A7DCF7" d="M83.389,12.332h7.439c-0.425-0.857-0.85-1.702-1.272-2.535C87.747,6.25,85.931,2.945,84.076,0H83.58h-5.854
		c0.542,0.899,1.07,1.84,1.581,2.827C80.819,5.742,82.169,8.979,83.389,12.332z"/>
	<path fill="#A7DCF7" d="M88.965,31.395h11.343h3.771h2.799c0.018-1.073-0.004-2.166-0.062-3.27
		c-0.063-1.021-0.155-2.052-0.271-3.081h-2.675h-6.543h-9.981c0.231,0.868,0.463,1.735,0.682,2.598
		C88.35,28.904,88.66,30.154,88.965,31.395z"/>
	<path fill="#A7DCF7" d="M103.81,12.332c-0.284-0.876-0.572-1.72-0.846-2.514c-0.656-1.698-1.236-3.192-1.808-4.438
		c-0.587-1.249-1.077-2.238-1.42-2.916c-0.027-0.056-0.05-0.097-0.076-0.148c-0.289-0.574-0.488-0.897-0.488-0.897
		c0.226,0.982,0.398,1.895,0.55,2.775c0.229,1.342,0.39,2.578,0.48,3.7c0.14,1.713,0.14,3.182,0.064,4.438h1.239H103.81
		L103.81,12.332z"/>
	<path fill="#A7DCF7" d="M94.057,54.562c0.187,0.895,0.365,1.757,0.537,2.568c0.161,0.771,0.319,1.513,0.469,2.202
		c0.188,0.893,0.366,1.716,0.528,2.464h1.874h3.993c0.204-0.714,0.407-1.46,0.606-2.229c0.141-0.541,0.279-1.092,0.417-1.651
		c0.333-1.378,0.648-2.804,0.944-4.222c0.262-1.252,0.506-2.495,0.729-3.698c0.005-0.023,0.009-0.045,0.013-0.068
		c0.266-1.428,0.499-2.796,0.696-4.035c0.1-0.633,0.189-1.231,0.271-1.789H91.856c0.825,3.837,1.552,7.345,2.188,10.397
		C94.048,54.521,94.053,54.542,94.057,54.562z"/>
	<path fill="#A7DCF7" d="M34.677,9.305c-0.069,0.526-0.149,1.059-0.254,1.611c-0.103,0.552-0.173,1.061-0.313,1.643
		c-0.122,0.545-0.243,1.082-0.362,1.612c-0.334,1.638-0.647,3.18-0.938,4.6c-0.111,0.499-0.204,0.995-0.291,1.485
		c-0.153,0.871-0.279,1.718-0.403,2.48c-0.116,0.739-0.221,1.411-0.317,2.023c0.099-0.428,0.204-0.855,0.316-1.282
		c0.449-1.696,0.992-3.384,1.609-4.724c0.593-1.375,1.16-2.551,1.58-3.381c0.105-0.207,0.2-0.393,0.284-0.556
		c0.042-0.081,0.081-0.156,0.117-0.226c0.046-0.1,0.088-0.19,0.126-0.271c0.154-0.335,0.238-0.518,0.238-0.518
		c0.467-1.944,0.814-3.854,1.205-5.855c0.386-1.999,0.758-4.01,1.184-5.996c0.141-0.655,0.286-1.305,0.437-1.95h-2.854h-0.349
		c-0.257,2.522-0.483,5.106-0.803,7.712C34.835,8.228,34.751,8.774,34.677,9.305z"/>
	<path fill="#DFF2FC" d="M110.832,27.773c0.041,0.831,0.084,1.69,0.128,2.558c0.021,0.358,0.034,0.71,0.05,1.063h0.419h1.724
		c-0.546-2.162-1.155-4.277-1.784-6.351h-0.721c0.049,0.673,0.102,1.397,0.158,2.187C110.813,27.406,110.823,27.594,110.832,27.773z
		"/>
	<path fill="none" d="M107.356,95.192c0.046-0.002,0.091-0.004,0.137-0.008"/>
	<path fill="#DFF2FC" d="M107.103,102.192c0.037-0.467,0.086-0.92,0.145-1.367c0.019-0.141,0.037-0.281,0.059-0.422
		c0.047-0.328,0.102-0.672,0.159-1.016c0.001-0.004,0.001-0.007,0.002-0.01c0.036-0.211,0.067-0.411,0.108-0.633
		c0.041-0.154,0.077-0.328,0.117-0.486c0.182-0.712,0.353-1.46,0.512-2.242c0.063-0.309,0.125-0.623,0.187-0.943
		c0.338-1.793,0.633-3.719,0.89-5.766c0.222-1.77,0.419-3.614,0.602-5.504c0.185-1.874,0.346-3.918,0.534-5.516
		c0.115-1.037,0.241-2.116,0.373-3.21c0.022-0.189,0.048-0.383,0.071-0.573H99.605c-0.02,0.325-0.022,0.739-0.018,1.229
		c0.008,0.455,0.021,0.96,0.044,1.548c0.007,0.14,0.02,0.295,0.026,0.44c0.036,0.63,0.086,1.299,0.143,2.041
		c0.087,0.947,0.182,1.979,0.28,3.08c0.366,3.771,0.864,8.333,1.393,12.984c0.09,0.796,0.18,1.595,0.271,2.394
		c0.104,0.906,0.208,1.811,0.313,2.709c0.023,0.209,0.048,0.416,0.07,0.625c0.072,0.625,0.146,1.245,0.216,1.861
		c0.026,0.225,0.053,0.449,0.078,0.673c0.031,0.274,0.063,0.544,0.096,0.813h4.676c-0.065-0.502-0.129-0.963-0.177-1.178
		C107.033,103.177,107.064,102.677,107.103,102.192z M107.356,95.192c0.046-0.002,0.091-0.004,0.137-0.008
		C107.447,95.188,107.402,95.19,107.356,95.192z"/>
	<path fill="#DFF2FC" d="M111.334,47.06c-0.056,1.397-0.149,2.802-0.275,4.186c-0.14,1.527-0.318,3.017-0.536,4.433
		c-0.03,0.198-0.057,0.405-0.088,0.6c-0.219,2.083-0.862,3.955-1.604,5.408c-0.021,0.039-0.041,0.072-0.061,0.11h0.284h0.121h0.807
		h2.678c0.091-0.539,0.188-1.058,0.28-1.583c0.037-0.207,0.073-0.419,0.109-0.623c0.001-0.002,0.001-0.004,0.001-0.005
		c0.182-0.98,0.365-1.94,0.561-2.855c0.126-0.763,0.265-1.643,0.397-2.592c0.179-1.262,0.346-2.654,0.458-4.108
		c0.103-1.303,0.156-2.647,0.138-3.985c0-0.025,0-0.05,0-0.075c-0.002-0.103,0.002-0.206-0.001-0.309
		c-0.026-0.497-0.044-1.022-0.059-1.557h-2.135h-1.019c-0.002,0.949-0.02,1.91-0.058,2.883
		C111.335,47.011,111.335,47.035,111.334,47.06z"/>
	<path fill="#F5FBFE" d="M108.74,117.612h-1.264h-0.354c0.06,3.861,0.12,7.754-0.134,11.683c-0.022,0.351-0.035,0.7-0.063,1.052
		c-0.178,2.766-0.88,9.422-1.656,16.012c-0.205,1.68-0.41,3.355-0.607,4.965c-0.187,1.435-0.381,2.781-0.568,4.047
		c0.776,0.523,1.371,1.289,1.774,2.244c0.114-0.713,0.23-1.471,0.348-2.275c0.194-1.416,0.413-2.914,0.595-4.527
		c0.177-1.568,0.357-3.189,0.539-4.801c0.68-6.313,1.254-12.47,1.41-14.613c0.064-1.313,0.108-2.551,0.14-3.731
		C109.001,123.588,108.917,120.269,108.74,117.612z"/>
	<path fill="#1A1A1A" d="M126.859,61.796H112.66h-2.678h-0.807h-0.121h-0.284h-0.158h-7.153h-3.993h-1.874H84.45h-0.227h-4.231
		h-0.173h-3.793V31.395H63.317v30.401v8.442v0.069v2.267v1.931l0.002,30.4l-0.002,12.707h1.928h9.033h0.766h0.982h0.52h0.857h3.311
		h1.755h1.171h1.872h0.05h0.849h2.119h1.485h13.86h0.086h1.401h1.76h0.354h1.264h5.411h5.472h7.234l0.002-0.002v-7.973v-4.732
		V82.067v-7.563V63.207v-0.101V61.796z M108.276,104.903h-1.084h-4.676h-21.15h-5.34V98.5l-0.001-23.995h6.521h17.059h11.254h3.292
		v0.849v29.551h-5.875V104.903z"/>
	<polygon fill="#1A1A1A" points="145.922,52.85 145.922,44.573 145.922,44.372 145.922,44.104 145.923,37.848 139.47,31.395 
		133.214,31.395 113.151,31.395 111.428,31.395 111.01,31.395 106.878,31.395 104.079,31.395 100.307,31.395 88.965,31.395 
		83.272,31.395 82.38,31.395 82.38,44.104 84.677,44.104 91.856,44.104 105.136,44.104 111.393,44.104 112.411,44.104 
		114.546,44.104 120.212,44.104 120.393,44.104 130.497,44.104 133.214,44.104 133.214,46.069 133.214,49.479 133.214,49.788 
		133.214,54.852 133.214,61.816 133.214,61.85 133.214,117.612 145.922,117.614 145.922,58.666 145.922,58.592 	"/>
	<polygon fill="#1A1A1A" points="103.81,12.332 101.508,12.332 100.268,12.332 90.942,12.332 90.829,12.332 83.389,12.332 
		77.155,12.332 77.06,12.332 63.317,12.332 63.317,25.044 81.847,25.044 87.347,25.044 97.329,25.044 103.872,25.044 
		106.547,25.044 110.288,25.044 110.646,25.044 111.367,25.044 133.119,25.044 120.407,12.332 106.459,12.332 	"/>
	<path fill="#FFFFFF" d="M86.771,164.804c-0.768-1-1.234-2.359-1.234-4.078c0-1.02,0.178-1.926,0.489-2.711
		c-0.04-0.355-0.08-0.711-0.12-1.068c-0.396-3.657-0.804-7.242-1.024-11.482c-0.652,0.428-1.305,0.863-1.961,1.282
		c-3.334,2.096-6.706,4.099-10.277,5.896c-2.172,1.092-4.417,2.108-6.772,3.023c-2.33,0.861-4.567,1.464-6.831,1.859
		c-0.005,0.011-0.01,0.021-0.014,0.031c-1.059,2.377-2.061,4.715-2.903,6.942l10.839,10.84h20.543
		c-0.113-1.76-0.208-3.632-0.272-5.64C87.094,168.013,86.936,166.396,86.771,164.804z"/>
	<path fill="#F7DDEB" d="M53.604,158.082c0.454-1.487,0.901-3.093,1.455-4.67c0.182-0.601,0.403-1.188,0.646-1.772
		c-1.856,0.242-3.759,0.4-5.734,0.369c-0.681,0.018-1.388-0.029-2.089-0.068c-0.223-0.017-0.444-0.028-0.668-0.043
		c-0.479-0.028-0.958-0.062-1.435-0.133l-2.093-0.285c-0.247-0.049-0.495-0.107-0.744-0.16l3.439,3.441l3.307,3.305
		c-0.019,0-0.035,0-0.053,0c0.019,0.002,0.037,0.002,0.057,0.004l2.904,2.904c0.354-0.846,0.67-1.795,0.979-2.805
		C53.586,158.142,53.595,158.11,53.604,158.082z"/>
	<path fill="#F7DDEB" d="M61.291,150.586c-0.224,0.546-0.425,1.088-0.592,1.623c-0.601,1.763-0.833,3.474-1.639,5.267
		c-0.007,0.017-0.016,0.032-0.021,0.049c2.263-0.396,4.501-0.998,6.831-1.859c2.355-0.915,4.602-1.932,6.772-3.023
		c3.571-1.797,6.943-3.799,10.277-5.896c0.656-0.419,1.309-0.854,1.961-1.282c-0.031-0.619-0.062-1.253-0.085-1.902
		c0.001-1.693,0.104-3.27,0.22-4.795c-3.819,2.926-8.18,5.707-13.122,8.029C68.628,148.338,65.086,149.642,61.291,150.586z"/>
	<path fill="#F7DDEB" d="M63.417,131.655c0.275-0.112,0.559-0.229,0.852-0.352c-0.787,0.047-1.642,0.11-2.554,0.186
		C62.215,131.552,62.785,131.606,63.417,131.655z"/>
	<path fill="#F7DDEB" d="M40.88,146.104c-0.407-0.137-0.834-0.281-1.278-0.422c-0.54-0.18-1.102-0.457-1.686-0.705
		c-0.586-0.252-1.187-0.531-1.783-0.892c-0.332-0.179-0.663-0.372-0.996-0.575l0.45,0.451c0.195,0.109,0.388,0.223,0.588,0.327
		C37.636,145.067,39.238,145.669,40.88,146.104z"/>
	<path fill="#F7DDEB" d="M27.143,135.519l0.052,0.053c-0.041-0.064-0.088-0.131-0.128-0.194
		C27.094,135.425,27.114,135.47,27.143,135.519z"/>
	<path fill="#F7DDEB" d="M66.479,141.911c2.444-1.381,4.771-2.997,6.919-4.842c0,0,0.108-0.237,0.223-0.594
		c-0.125,0.113-0.242,0.229-0.369,0.342C71.282,138.565,69.009,140.334,66.479,141.911z"/>
	<path fill="#F7DDEB" d="M42.448,136.497c-1.795-0.406-3.547-1.168-5.131-2.311c-1.717-1.209-3.188-2.851-4.418-4.69
		c1.151,2.026,2.629,3.788,4.34,5.063c1.859,1.397,3.954,2.221,6.028,2.574c0.531,0.064,1.019,0.186,1.554,0.193
		c0.521,0.018,1.036,0.033,1.547,0.05c1.061-0.038,2.078-0.073,3.064-0.241c0.731-0.104,1.438-0.25,2.129-0.418
		c-1.188,0.16-2.414,0.268-3.677,0.286C46.011,137.054,44.255,136.905,42.448,136.497z"/>
	<path fill="#EDB6D3" d="M73.251,136.817c0.127-0.113,0.244-0.229,0.369-0.342c0.07-0.226,0.144-0.486,0.189-0.795
		c0.123-0.795,0.068-1.793-0.562-2.627c-0.182-0.242-0.419-0.467-0.706-0.673c-1.608,1.535-3.221,3.095-4.847,4.724
		c-0.48,0.586-1.036,1.461-1.182,2.039c-0.349,1.166-0.826,2.334-1.362,3.498c0.447-0.231,0.887-0.482,1.326-0.73
		C69.009,140.334,71.282,138.565,73.251,136.817z"/>
	<path fill="#F2CBDF" d="M62.456,130.21c-0.857,0.477-1.533,0.85-1.981,1.1c-0.391,0.215-0.611,0.338-0.611,0.338
		c0.648-0.059,1.26-0.109,1.853-0.158c0.912-0.073,1.767-0.137,2.554-0.184c0.734-0.045,1.414-0.072,2.046-0.086
		c0.173-0.355,0.356-0.697,0.538-1.041c0.711-1.353,1.503-2.627,2.438-3.804c-0.199,0.11-0.399,0.224-0.598,0.332
		C66.25,128.081,64.055,129.349,62.456,130.21z"/>
	<path fill="#F2CBDF" d="M45.78,151.765c0.477,0.071,0.955,0.104,1.435,0.133c0.224,0.015,0.445,0.026,0.668,0.043
		c0.701,0.039,1.408,0.086,2.089,0.068c1.977,0.031,3.878-0.127,5.734-0.369c0.876-2.094,2.099-4.086,3.346-6.093
		c0.096-0.149,0.188-0.303,0.282-0.452c-1.245,0.414-2.503,0.785-3.778,1.069c-2.031,0.454-4.108,0.706-6.171,0.787
		c-1.226,0.048-2.445,0.051-3.646-0.041c-1.594-0.11-3.245-0.378-4.858-0.806c-1.642-0.437-3.243-1.037-4.705-1.814
		c-0.2-0.104-0.393-0.219-0.588-0.327l7.356,7.356c0.249,0.052,0.497,0.109,0.744,0.158L45.78,151.765z"/>
	<path fill="#F2CBDF" d="M82.123,123.726c-0.22,0.203-0.436,0.396-0.637,0.563c-0.656,0.54-1.319,1.109-1.981,1.688
		c-1.322,1.158-2.641,2.354-3.949,3.563c-1.007,0.933-2.01,1.886-3.013,2.843c0.287,0.206,0.524,0.432,0.706,0.674
		c0.63,0.832,0.685,1.83,0.562,2.627c-0.047,0.309-0.119,0.568-0.189,0.793c-0.113,0.356-0.223,0.596-0.223,0.596
		c-2.146,1.844-4.475,3.459-6.919,4.841c-0.439,0.248-0.879,0.499-1.326,0.729c-0.013,0.027-0.026,0.057-0.039,0.084
		c-1.241,2.678-2.787,5.326-3.822,7.86c3.795-0.944,7.337-2.248,10.604-3.791c4.942-2.323,9.303-5.104,13.122-8.03
		c0.174-2.314,0.374-4.518,0.287-6.834c-0.325-3.55-0.69-6.896-1.099-10.121c-0.164,0.15-0.336,0.312-0.479,0.435
		C83.255,122.646,82.675,123.217,82.123,123.726z"/>
	<path fill="#FAECF3" d="M55.426,158.049c0.012-0.024,0.021-0.049,0.03-0.073c0.921-2.25,1.908-4.498,2.94-6.754
		c0.232-0.511,0.466-1.021,0.703-1.533c0.052-0.408,0.148-0.828,0.274-1.254c0.118-0.401,0.267-0.812,0.438-1.225
		c0.334-0.805,0.751-1.626,1.211-2.443c0.066-0.121,0.14-0.238,0.209-0.358c0.889-1.546,1.888-3.068,2.678-4.431
		c0.543-0.893,1.217-1.642,1.973-2.668c1.3-2.063,2.432-4.354,3.69-5.943c0.354-0.447,0.719-0.85,1.101-1.164
		c1.798-1.355,3.574-2.717,5.385-4.148c0.292-0.232,0.602-0.48,0.897-0.718c0.608-0.485,1.211-0.967,1.841-1.47
		c0.284-0.234,0.546-0.438,0.823-0.661c0.188-0.151,0.382-0.312,0.598-0.499c0.498-0.414,1.094-1.016,1.561-1.42
		c0.314-0.285,0.715-0.666,1.179-1.116c0.282-0.272,0.588-0.571,0.916-0.896c-0.076-0.557-0.152-1.111-0.231-1.66h-1.17
		c-0.688,0.869-1.132,1.439-1.208,1.486c-0.108-0.56-0.334-1.016-0.548-1.486h-3.311h-0.857h-0.52h-0.982h-0.766
		c-1.004,1.008-2.009,1.992-3.051,2.894c0-0.001,0.632-0.252,1.571-0.678c0.272-0.117,0.575-0.253,0.892-0.397
		c-0.15,0.203-0.299,0.405-0.447,0.608c-2.71,3.714-4.963,7.405-3.511,5.763c-0.158,0.184-0.292,0.385-0.442,0.572
		c-0.936,1.178-1.728,2.451-2.438,3.803c-0.182,0.346-0.365,0.688-0.538,1.041c-0.09,0.184-0.176,0.372-0.265,0.557
		c-0.085,0.18-0.17,0.356-0.254,0.537c-1.265,2.729-2.423,5.672-4.043,8.658c-0.736,1.409-1.578,2.771-2.419,4.123
		c-0.095,0.15-0.188,0.303-0.281,0.453c-1.248,2.006-2.471,3.999-3.347,6.094c-0.243,0.582-0.466,1.172-0.646,1.771
		c-0.554,1.578-1.001,3.182-1.455,4.67c-0.009,0.027-0.019,0.059-0.026,0.087c-0.31,1.009-0.626,1.959-0.979,2.806l0.742,0.742
		l0.482,0.483c0.308-0.858,0.629-1.718,0.962-2.571C54.993,159.103,55.211,158.575,55.426,158.049z"/>
	<path fill="#FEF9FC" d="M59.039,157.524c0.007-0.018,0.016-0.033,0.021-0.051c0.806-1.793,1.038-3.504,1.639-5.266
		c0.167-0.535,0.368-1.077,0.592-1.623c1.035-2.533,2.581-5.184,3.822-7.861c0.013-0.027,0.026-0.056,0.039-0.082
		c0.536-1.164,1.015-2.332,1.362-3.498c0.146-0.578,0.7-1.453,1.182-2.039c1.626-1.629,3.237-3.188,4.847-4.724
		c1.003-0.957,2.006-1.911,3.013-2.843c1.31-1.211,2.627-2.405,3.949-3.564c0.662-0.576,1.325-1.146,1.981-1.687
		c0.201-0.166,0.417-0.36,0.637-0.563c0.552-0.508,1.132-1.078,1.604-1.48c0.143-0.123,0.313-0.283,0.479-0.434
		c-0.066-0.537-0.134-1.082-0.204-1.611c-0.011-0.084-0.022-0.163-0.034-0.246c-0.023-0.182-0.052-0.357-0.075-0.539
		c-0.006-0.047-0.014-0.094-0.021-0.139c-0.328,0.322-0.634,0.621-0.916,0.895c-0.464,0.45-0.863,0.831-1.179,1.116
		c-0.467,0.403-1.063,1.006-1.561,1.42c-0.216,0.188-0.409,0.349-0.598,0.499c-0.277,0.223-0.539,0.427-0.823,0.66
		c-0.63,0.504-1.231,0.984-1.841,1.471c-0.297,0.236-0.605,0.484-0.897,0.719c-1.811,1.432-3.587,2.793-5.385,4.147
		c-0.382,0.313-0.744,0.717-1.101,1.163c-1.26,1.592-2.392,3.882-3.69,5.943c-0.756,1.027-1.43,1.776-1.973,2.67
		c-0.79,1.36-1.789,2.885-2.678,4.43c-0.069,0.119-0.143,0.238-0.209,0.357c-0.46,0.818-0.877,1.641-1.211,2.444
		c-0.171,0.413-0.318,0.821-0.438,1.224c-0.126,0.428-0.224,0.848-0.274,1.254c-0.237,0.514-0.471,1.023-0.703,1.535
		c-1.032,2.256-2.021,4.504-2.94,6.754c-0.011,0.023-0.02,0.049-0.03,0.072c-0.215,0.525-0.433,1.053-0.641,1.58
		c-0.333,0.854-0.654,1.712-0.962,2.57l0.854,0.855l1.444,1.443c0.844-2.229,1.846-4.566,2.903-6.943
		C59.029,157.545,59.034,157.534,59.039,157.524z"/>
	<path fill="#FEF1DE" d="M149.034,160.108c0.326-0.664,0.679-1.321,1.018-1.965v-3.438h1.936c0.086-0.139,0.172-0.273,0.256-0.426
		c1-2.191,1.555-4.697,2.818-5.973c0.668-0.611,1.33-1.232,1.982-1.875c0.015-0.015,0.027-0.029,0.042-0.045
		c0.276-3.347,0.96-5.691,2.997-8.514h-4.859c-0.204,0.521-0.416,1.063-0.633,1.604c-1.291,3.436-2.525,6.924-1.597,5.44
		c-1.085,1.743-1.611,3.696-2.09,5.79c-0.239,1.046-0.466,2.126-0.744,3.227c-0.293,1.096-0.667,2.195-1.139,3.311
		c-0.207,0.514-0.444,1.013-0.693,1.506L149.034,160.108z"/>
	<path fill="#FEF1DE" d="M147.76,164.19c0.007-0.334,0.055-0.674,0.124-1.021c0.019-0.089,0.052-0.181,0.072-0.269l-0.923-1.801
		c-0.337,0.573-0.672,1.145-0.999,1.715v3.799h-1.792c-0.021,0.068-0.052,0.133-0.073,0.199c-0.939,2.621-1.641,5.447-3.19,6.82
		c-0.588,0.59-1.092,1.129-1.572,1.702h1.796h0.882c0.684-1.169,1.349-2.343,1.979-3.532
		C145.366,169.308,146.599,166.776,147.76,164.19z"/>
	<path fill="#C7E8FA" d="M95.215,165.608c0.194-5.744,0.543-11.467,0.651-8.547c-0.106-0.522,0.515-2.172,0.929-2.479
		c0.26,0.119,0.676-0.188,0.783,0.336c0.041,0.203,0.086,0.388,0.131,0.569c0.885-0.651,1.993-1.006,3.271-1.006
		c0.24,0,0.462,0.037,0.689,0.063c0.052-0.906,0.105-1.877,0.164-2.889c0.066-1.157,0.136-2.358,0.202-3.555
		c0.081-1.168,0.161-2.33,0.238-3.441c0.179-2.221,0.4-4.232,0.68-5.659c0.559-2.583,1.153-4.993,1.585-7.692
		c0.296-1.848,0.518-3.826,0.589-6.104c-0.085-1.447-0.729-2.182-0.817-3.641c-0.004-0.52-0.136-1.928-0.351-3.951h-0.086H90.014
		h-1.485H86.41h-0.849h-0.05h-1.872c0.078,0.549,0.155,1.104,0.231,1.66c0.007,0.047,0.014,0.093,0.021,0.14
		c0.023,0.181,0.052,0.356,0.075,0.539c0.012,0.083,0.023,0.163,0.034,0.245c0.07,0.531,0.138,1.074,0.204,1.611
		c0.407,3.227,0.772,6.571,1.099,10.121c0.087,2.316-0.113,4.52-0.287,6.834c-0.114,1.526-0.219,3.103-0.22,4.795
		c0.023,0.65,0.054,1.283,0.085,1.903c0.222,4.24,0.628,7.825,1.024,11.483c0.04,0.355,0.08,0.711,0.12,1.066
		c0.902-2.273,2.945-3.529,5.192-3.529c1.554,0,2.802,0.72,3.617,1.553l-1.504,1.824c-0.593-0.545-1.217-0.928-2.064-0.928
		c-1.536,0-2.802,1.375-2.802,3.696c0,2.369,1.089,3.745,2.77,3.745c0.944,0,1.713-0.479,2.272-1.088l1.506,1.793
		c-1.01,1.168-2.338,1.76-3.891,1.76c-1.737,0-3.317-0.689-4.353-2.037c0.164,1.594,0.321,3.209,0.459,4.896
		c0.064,2.007,0.159,3.879,0.272,5.639h7.936c0.019-0.298,0.038-0.598,0.068-0.895C95.2,177.125,95.014,171.356,95.215,165.608z"/>
	<path fill="#C7E8FA" d="M101.298,160.342c0.042-0.116,0.123-1.407,0.234-3.348c-0.175-0.04-0.358-0.062-0.552-0.062
		c-0.916,0-1.616,0.475-2.048,1.319C99.692,159.188,100.558,159.462,101.298,160.342z"/>
	<path fill="#C7E8FA" d="M99.785,6.173c-0.002,0.143-0.002,0.299-0.003,0.446c0.139,0.411,0.279,0.835,0.421,1.274
		c-0.092-1.122-0.251-2.358-0.48-3.7C99.741,4.796,99.763,5.452,99.785,6.173z"/>
	<path fill="#C7E8FA" d="M98.065,2.131c0.409,1.009,0.969,2.451,1.617,4.191c0.032,0.096,0.065,0.2,0.1,0.297
		c0.001-0.147,0.001-0.304,0.003-0.446c-0.021-0.721-0.044-1.377-0.063-1.979c-0.15-0.881-0.324-1.793-0.55-2.775
		c0,0,0.199,0.323,0.488,0.897c-0.021-0.972-0.113-1.71-0.133-2.2C99.525,0.071,99.523,0.04,99.521,0h-2.58
		c0.135,0.182,0.271,0.371,0.405,0.549C97.346,0.549,97.608,1.127,98.065,2.131z"/>
	<path opacity="0.9" fill="#4AC1F1" enable-background="new    " d="M98.065,2.131c0.409,1.009,0.969,2.451,1.617,4.191
		c0.032,0.096,0.065,0.2,0.1,0.297c0.001-0.147,0.001-0.304,0.003-0.446c-0.021-0.721-0.044-1.377-0.063-1.979
		c-0.15-0.881-0.324-1.793-0.55-2.775c0,0,0.199,0.323,0.488,0.897c-0.021-0.972-0.113-1.71-0.133-2.2
		C99.525,0.071,99.523,0.04,99.521,0h-2.58c0.135,0.182,0.271,0.371,0.405,0.549C97.346,0.549,97.608,1.127,98.065,2.131z"/>
	<path fill="#DFF2FC" d="M104.092,155.369c0.188-1.265,0.383-2.612,0.568-4.046c0.197-1.609,0.402-3.286,0.607-4.967
		c0.776-6.588,1.479-13.246,1.656-16.01c0.028-0.353,0.041-0.701,0.063-1.053c0.254-3.93,0.192-7.82,0.134-11.682h-1.76h-1.401
		c0.215,2.023,0.347,3.433,0.351,3.951c0.088,1.459,0.732,2.192,0.817,3.641c-0.071,2.277-0.293,4.256-0.589,6.104
		c-0.432,2.699-1.026,5.109-1.585,7.692c-0.278,1.427-0.501,3.438-0.68,5.659c-0.077,1.111-0.157,2.273-0.238,3.441
		c-0.066,1.195-0.136,2.396-0.202,3.555c-0.059,1.012-0.112,1.98-0.164,2.889C102.583,154.642,103.406,154.905,104.092,155.369z"/>
	<path fill="#DFF2FC" d="M100.98,166.84c-3.25,0-5.459-2.337-5.459-6.241c0-2.369,0.821-4.104,2.188-5.109
		c-0.045-0.182-0.09-0.366-0.131-0.569c-0.107-0.524-0.523-0.217-0.783-0.336c-0.414,0.308-1.035,1.956-0.929,2.479
		c-0.108-2.92-0.457,2.803-0.651,8.547c-0.2,5.748-0.015,11.517,0.293,8.834c-0.03,0.299-0.051,0.598-0.068,0.896h2.813h1.302
		c0.777-2.729,1.556-5.536,2.309-8.579C101.575,166.799,101.287,166.84,100.98,166.84z"/>
	<path fill="#DFF2FC" d="M102.608,163.633c0.111-0.487,0.222-0.979,0.33-1.485c0.137-0.633,0.305-1.537,0.493-2.635
		c-0.229-1.392-0.899-2.285-1.899-2.519c-0.111,1.938-0.192,3.229-0.234,3.348c-0.739-0.88-1.604-1.153-2.364-2.089
		c-0.308,0.602-0.481,1.387-0.481,2.346c0,2.32,0.96,3.776,2.529,3.776C101.641,164.375,102.188,164.104,102.608,163.633z"/>
	<path fill="#F5FBFE" d="M101.862,166.758c-0.753,3.044-1.53,5.851-2.309,8.58h0.356h2.308c0.609-3.127,1.288-6.271,1.995-9.515
		C103.55,166.319,102.753,166.631,101.862,166.758z"/>
	<path fill="#F5FBFE" d="M102.608,163.633c0.581-0.649,0.917-1.69,0.917-3.034c0-0.395-0.038-0.75-0.094-1.086
		c-0.188,1.098-0.356,2.002-0.493,2.635C102.83,162.651,102.72,163.146,102.608,163.633z"/>
	<path fill="#3E3A39" d="M139.844,147.64c2.13,0,3.922-1.504,3.922-4.033c0-2.592-1.504-3.744-3.489-3.744
		c-0.672,0-1.681,0.416-2.272,1.168c0.111-2.594,1.088-3.475,2.32-3.475c0.656,0,1.393,0.418,1.777,0.834l1.504-1.682
		c-0.752-0.77-1.904-1.426-3.474-1.426c-2.466,0-4.737,1.97-4.737,6.275C135.394,145.896,137.603,147.64,139.844,147.64z
		 M139.731,141.86c0.784,0,1.425,0.434,1.425,1.746c0,1.345-0.625,1.904-1.377,1.904s-1.488-0.593-1.729-2.576
		C138.531,142.149,139.139,141.86,139.731,141.86z"/>
	<path fill="#3E3A39" d="M145.218,137.876h1.271h3.851c-2.24,3.105-2.85,5.618-3.072,9.54h2.864
		c0.208-4.658,0.496-6.897,3.249-10.181v-1.729h-6.518h-1.646L145.218,137.876L145.218,137.876z"/>
	<path fill="#3E3A39" d="M157.086,146.39c-0.027,0.336-0.056,0.67-0.076,1.026h2.394h0.473c0.012-0.229,0.021-0.448,0.032-0.666
		c0.078-1.567,0.185-2.856,0.418-4.017c0.396-1.951,1.156-3.541,2.799-5.498v-1.729h-0.672h-3.261h-3.039h-1.191v2.369h0.263h4.859
		C158.046,140.698,157.362,143.043,157.086,146.39z"/>
	<path fill="#3E3A39" d="M86.771,164.804c1.034,1.348,2.615,2.036,4.353,2.036c1.553,0,2.881-0.592,3.891-1.76l-1.506-1.793
		c-0.561,0.608-1.328,1.088-2.272,1.088c-1.681,0-2.77-1.376-2.77-3.745c0-2.32,1.266-3.697,2.802-3.697
		c0.849,0,1.473,0.385,2.064,0.928l1.504-1.823c-0.815-0.833-2.063-1.554-3.616-1.554c-2.248,0-4.291,1.258-5.193,3.531
		c-0.313,0.785-0.489,1.691-0.489,2.711C85.537,162.442,86.005,163.804,86.771,164.804z"/>
	<path fill="#3E3A39" d="M104.092,155.369c-0.686-0.464-1.509-0.729-2.421-0.824c-0.229-0.024-0.449-0.062-0.689-0.062
		c-1.278,0-2.387,0.354-3.271,1.006c-1.364,1.006-2.188,2.738-2.188,5.107c0,3.905,2.209,6.242,5.459,6.242
		c0.307,0,0.595-0.041,0.882-0.082c0.891-0.127,1.688-0.438,2.352-0.936c1.391-1.037,2.226-2.832,2.226-5.225
		c0-1.152-0.215-2.14-0.572-2.984C105.463,156.658,104.868,155.894,104.092,155.369z M98.451,160.599
		c0-0.959,0.175-1.744,0.481-2.346c0.432-0.845,1.132-1.32,2.048-1.32c0.192,0,0.377,0.021,0.552,0.063
		c1,0.232,1.672,1.127,1.899,2.518c0.056,0.338,0.094,0.692,0.094,1.086c0,1.346-0.336,2.387-0.917,3.035
		c-0.421,0.473-0.968,0.742-1.628,0.742C99.411,164.375,98.451,162.919,98.451,160.599z"/>
	<path fill="#3E3A39" d="M115.012,159.847c-0.225,0.688-0.416,1.439-0.656,2.176h-0.08c-0.225-0.735-0.416-1.487-0.656-2.176
		l-1.889-5.14h-3.089v11.909h2.561v-4.082c0-1.186-0.224-2.961-0.368-4.129h0.064l0.96,2.849l1.617,4.354h1.567l1.602-4.354
		l0.992-2.849h0.063c-0.145,1.168-0.368,2.943-0.368,4.129v4.082h2.608v-11.909h-3.104L115.012,159.847z"/>
	<path fill="#3E3A39" d="M126.852,154.707h-4.179v11.909h2.865v-3.953h1.394c2.513,0,4.705-1.249,4.705-4.082
		C131.637,155.636,129.477,154.707,126.852,154.707z M126.787,160.405h-1.248v-3.441h1.168c1.377,0,2.146,0.417,2.146,1.617
		C128.852,159.749,128.18,160.405,126.787,160.405z"/>
	<path fill="#3E3A39" d="M134.946,154.707l-3.697,11.909h2.913l0.688-2.737h1.984h1.536l0.688,2.737h3.009l-2.229-7.174l-1.47-4.735
		H134.946z M135.65,160.662c0.305-1.185,0.625-2.577,0.913-3.826h0.063c0.32,1.218,0.624,2.642,0.944,3.826l0.256,1.008h-2.433
		L135.65,160.662z"/>
	<path fill="#3E3A39" d="M146.034,162.815v-0.152c0-1.441-0.24-3.073-0.368-4.402h0.08l1.168,2.609l0.119,0.23l0.923,1.801
		l1.649,3.22l0.254,0.495h2.913v-8.756v-3.153h-0.786h-1.936v3.438v0.5c0,1.424,0.226,3.137,0.385,4.401h-0.08l-1.168-2.642
		l-0.153-0.297l-0.706-1.356l-2.102-4.045h-2.913v11.909h0.929h1.792V162.815L146.034,162.815z"/>
	<path fill="#3E3A39" d="M160.066,157.349c-0.336,0.896-0.656,1.729-0.992,2.657h-0.064c-0.336-0.929-0.64-1.761-0.96-2.657
		l-0.991-2.642h-3.042l3.586,7.698v4.211h2.85v-4.211l3.601-7.698h-2.992L160.066,157.349z"/>
</g>
</svg>
