<?xml version="1.0" encoding="utf-8"?>
<!-- Generator: Adobe Illustrator 16.0.3, SVG Export Plug-In . SVG Version: 6.00 Build 0)  -->
<!DOCTYPE svg PUBLIC "-//W3C//DTD SVG 1.1//EN" "http://www.w3.org/Graphics/SVG/1.1/DTD/svg11.dtd">
<svg version="1.1" id="레이어_1" xmlns="http://www.w3.org/2000/svg" xmlns:xlink="http://www.w3.org/1999/xlink" x="0px"
	 y="0px" width="175.352px" height="175.338px" viewBox="0 0 175.352 175.338" enable-background="new 0 0 175.352 175.338"
	 xml:space="preserve">
<g>
	<g>
		<polygon fill="none" points="133.647,25.128 139.998,31.479 146.451,31.479 146.451,37.932 151.708,43.188 151.708,25.128 		"/>
		<rect x="76.555" y="74.589" fill="#FFFFFF" width="38.125" height="30.398"/>
		<path fill="#FFFFFF" d="M164.417,55.897v61.799h-12.709V43.188l-5.257-5.257l-0.001,6.256v73.511l-12.708-0.002V44.187H82.908
			V31.479h50.834h6.256l-6.351-6.351H63.846V12.416h57.09L108.604,0.084H0.364v108.211l67.125,67.127h108.226V67.195L164.417,55.897
			z M127.388,74.589v30.4v12.705l-0.002,0.002H114.68H76.555H63.846l0.002-12.707l-0.002-30.4V61.88V31.479h12.709V61.88h50.833
			V74.589z"/>
		<path fill="#3E3A39" d="M76.555,31.479H63.846V61.88v12.709l0.002,30.4l-0.002,12.707h12.709h38.125h12.706l0.002-0.002v-12.705
			v-30.4V61.88H76.555V31.479z M114.68,74.589v30.398H76.555l-0.001-30.398H114.68z"/>
		<polygon fill="#FFFFFF" points="139.998,31.479 146.451,37.932 146.451,31.479 		"/>
		<polygon fill="#3E3A39" points="133.742,31.479 82.908,31.479 82.908,44.188 133.742,44.188 133.742,117.696 146.45,117.698 
			146.45,44.188 146.451,37.932 139.998,31.479 		"/>
		<polygon fill="#FFFFFF" points="151.708,25.128 151.708,43.188 164.417,55.897 164.417,12.416 152.805,12.416 151.708,12.416 
			120.936,12.416 133.647,25.128 		"/>
		<polygon fill="#3E3A39" points="63.846,25.128 133.647,25.128 120.936,12.416 63.846,12.416 		"/>
		<polygon fill="#3E3A39" points="151.708,117.696 164.417,117.696 164.417,55.897 151.708,43.188 		"/>
	</g>
</g>
</svg>
