<?xml version="1.0" encoding="utf-8"?>
<!-- Generator: Adobe Illustrator 16.0.3, SVG Export Plug-In . SVG Version: 6.00 Build 0)  -->
<!DOCTYPE svg PUBLIC "-//W3C//DTD SVG 1.1//EN" "http://www.w3.org/Graphics/SVG/1.1/DTD/svg11.dtd">
<svg version="1.1" id="레이어_1" xmlns="http://www.w3.org/2000/svg" xmlns:xlink="http://www.w3.org/1999/xlink" x="0px"
	 y="0px" width="175.351px" height="175.338px" viewBox="0 0 175.351 175.338" enable-background="new 0 0 175.351 175.338"
	 xml:space="preserve">
<g>
	<g>
		<g>
			<g>
				<polygon fill="#FFFFFF" points="0,0 108.239,0 175.351,67.112 175.351,175.338 67.125,175.338 0,108.212 				"/>
			</g>
		</g>
		<g>
			<g>
				<path fill="none" stroke="#FFFEEC" stroke-width="20" stroke-miterlimit="10" d="M23.542,188.083"/>
			</g>
		</g>
		<polygon fill="#DF251E" points="23.542,168.439 97.839,125.545 23.542,82.649 		"/>
		<g>
			<g>
				<path fill="#48B35F" d="M104.548,10.401h18.377c10.885,0,19.578,2.897,19.578,13.006c0,4.666-2.613,9.756-6.855,11.381v0.285
					c5.303,1.414,9.332,5.369,9.332,12.368c0,10.743-9.117,15.552-20.572,15.552h-19.859V10.401z M122.429,31.257
					c5.373,0,7.775-2.334,7.775-5.938c0-3.748-2.471-5.305-7.775-5.305h-5.227v11.243H122.429z M123.489,53.307
					c6.08,0,9.189-2.19,9.189-6.715c0-4.308-3.039-6.007-9.189-6.007h-6.287v12.722H123.489z"/>
			</g>
		</g>
		<g>
			<g>
				<path fill="#375594" d="M0,0h39.47v12.3H14.875v13.547h21.106v12.381H14.875v23.601H0V0z"/>
			</g>
		</g>
		<g>
			<g>
				<polygon fill="#3496D4" points="153.444,87.615 153.444,95.279 163.854,95.279 163.854,126.14 173.124,126.14 173.124,95.279 
					175.351,95.279 175.351,87.615 				"/>
			</g>
		</g>
	</g>
	<g>
		<path fill="#3E3A39" d="M113.524,154.707h3.09l1.889,5.139c0.24,0.688,0.432,1.44,0.656,2.177h0.08
			c0.24-0.736,0.432-1.488,0.656-2.177l1.824-5.139h3.105v11.909h-2.609v-4.082c0-1.185,0.225-2.961,0.369-4.129h-0.064
			l-0.992,2.849l-1.602,4.354h-1.568l-1.617-4.354l-0.959-2.849h-0.064c0.145,1.168,0.367,2.944,0.367,4.129v4.082h-2.561V154.707z"
			/>
		<path fill="#3E3A39" d="M127.558,154.707h7.555v2.369h-4.689v2.209h3.984v2.401h-3.984v2.528h4.865v2.401h-7.73V154.707z"/>
		<path fill="#3E3A39" d="M137.638,154.707h3.424c3.635,0,6.035,1.745,6.035,5.891s-2.4,6.019-5.875,6.019h-3.584V154.707z
			 M140.886,164.312c1.922,0,3.281-0.881,3.281-3.714s-1.359-3.617-3.281-3.617h-0.383v7.331H140.886z"/>
		<path fill="#3E3A39" d="M149.3,154.707h2.865v11.909H149.3V154.707z"/>
		<path fill="#3E3A39" d="M160.519,163.879h-3.521l-0.688,2.737h-2.914l3.697-11.909h3.426l3.697,11.909h-3.008L160.519,163.879z
			 M159.974,161.67l-0.256-1.008c-0.32-1.185-0.623-2.609-0.943-3.826h-0.064c-0.287,1.249-0.607,2.642-0.912,3.826l-0.256,1.008
			H159.974z"/>
	</g>
</g>
</svg>
