<?xml version="1.0" encoding="utf-8"?>
<!-- Generator: Adobe Illustrator 16.0.3, SVG Export Plug-In . SVG Version: 6.00 Build 0)  -->
<!DOCTYPE svg PUBLIC "-//W3C//DTD SVG 1.1//EN" "http://www.w3.org/Graphics/SVG/1.1/DTD/svg11.dtd">
<svg version="1.1" id="레이어_1" xmlns="http://www.w3.org/2000/svg" xmlns:xlink="http://www.w3.org/1999/xlink" x="0px"
	 y="0px" width="175.351px" height="175.338px" viewBox="0 0 175.351 175.338" enable-background="new 0 0 175.351 175.338"
	 xml:space="preserve">
<g>
	<g>
		<path fill="#FFFFFF" d="M130.204,25.318c0-3.748-2.471-5.305-7.775-5.305h-5.227v11.243h5.227
			C127.802,31.257,130.204,28.923,130.204,25.318z"/>
		<path fill="#FFFFFF" d="M132.679,46.592c0-4.308-3.039-6.007-9.189-6.007h-6.287v12.722h6.287
			C129.569,53.307,132.679,51.116,132.679,46.592z"/>
		<path fill="#FFFFFF" d="M139.791,31.552c-1.099,1.448-2.496,2.605-4.144,3.236v0.285c5.303,1.414,9.332,5.369,9.332,12.368
			c0,10.743-9.117,15.552-20.572,15.552h-19.859V10.401h14.093L108.239,0H0v108.212l23.543,23.543V82.649l74.296,42.896
			l-51.04,29.468l20.325,20.325h108.226V67.112L139.791,31.552z"/>
		<polygon fill="#FFFFFF" points="23.542,168.439 46.799,155.013 23.542,131.755 		"/>
		<polygon fill="#1A1A1A" points="23.542,82.649 23.542,131.755 46.799,155.013 97.839,125.545 		"/>
		<path fill="#FFFFFF" d="M142.503,23.407c0-10.108-8.693-13.006-19.578-13.006h-4.284l21.15,21.15
			C141.521,29.271,142.503,26.262,142.503,23.407z"/>
		<path fill="#1A1A1A" d="M104.548,62.993h19.859c11.455,0,20.572-4.809,20.572-15.552c0-6.999-4.029-10.954-9.332-12.368v-0.285
			c1.647-0.631,3.045-1.788,4.144-3.236l-21.15-21.15h-14.093V62.993z M117.202,20.014h5.227c5.305,0,7.775,1.557,7.775,5.305
			c0,3.604-2.402,5.938-7.775,5.938h-5.227V20.014z M117.202,40.585h6.287c6.15,0,9.189,1.699,9.189,6.007
			c0,4.524-3.109,6.715-9.189,6.715h-6.287V40.585z"/>
	</g>
	<g>
		<path fill="#3E3A39" d="M0,0h39.47v12.3H14.875v13.547h21.106v12.381H14.875v23.601H0V0z"/>
	</g>
	<g>
		<polygon fill="#1A1A1A" points="153.444,87.615 153.444,95.279 163.854,95.279 163.854,126.14 173.124,126.14 173.124,95.279 
			175.351,95.279 175.351,87.615 		"/>
	</g>
</g>
</svg>
